STARTFONT 2.1
FONT -FontForge-Monoton-Book-R-Normal--32-320-72-72-P-216-ISO10646-1
SIZE 32 72 72
FONTBOUNDINGBOX 59 49 -5 -12
COMMENT "Generated by fontforge, http://fontforge.sourceforge.net"
COMMENT "Copyright (c) 2011 by vernon adams. All rights reserved."
STARTPROPERTIES 40
FOUNDRY "FontForge"
FAMILY_NAME "Monoton"
WEIGHT_NAME "Book"
SLANT "R"
SETWIDTH_NAME "Normal"
ADD_STYLE_NAME ""
PIXEL_SIZE 32
POINT_SIZE 320
RESOLUTION_X 72
RESOLUTION_Y 72
SPACING "P"
AVERAGE_WIDTH 216
CHARSET_REGISTRY "ISO10646"
CHARSET_ENCODING "1"
FONTNAME_REGISTRY ""
CHARSET_COLLECTIONS "ISO8859-2 ISO8859-9 ISO8859-4 ISO10646-1"
FONT_NAME "Monoton-Regular"
FACE_NAME "Monoton"
COPYRIGHT "Copyright (c) 2011 by vernon adams. All rights reserved."
FONT_VERSION "1.000"
FONT_ASCENT 26
FONT_DESCENT 6
UNDERLINE_POSITION -2
UNDERLINE_THICKNESS 1
X_HEIGHT 22
CAP_HEIGHT 25
DEFAULT_CHAR 1
RAW_ASCENT 799
RAW_DESCENT 200
NORM_SPACE 3
RELATIVE_WEIGHT 40
RELATIVE_SETWIDTH 50
SUPERSCRIPT_X 0
SUPERSCRIPT_Y 11
SUPERSCRIPT_SIZE 19
SUBSCRIPT_X 0
SUBSCRIPT_Y 2
SUBSCRIPT_SIZE 19
AVG_LOWERCASE_WIDTH 232
AVG_UPPERCASE_WIDTH 253
ENDPROPERTIES
CHARS 372
STARTCHAR glyph1.dup1
ENCODING 0
SWIDTH 108 0
DWIDTH 3 0
BBX 1 1 0 0
BITMAP
00
ENDCHAR
STARTCHAR uni0002
ENCODING 2
SWIDTH 108 0
DWIDTH 3 0
BBX 1 1 0 0
BITMAP
00
ENDCHAR
STARTCHAR uni0009
ENCODING 9
SWIDTH 108 0
DWIDTH 3 0
BBX 1 1 0 0
BITMAP
00
ENDCHAR
STARTCHAR uni000A
ENCODING 10
SWIDTH 108 0
DWIDTH 3 0
BBX 1 1 0 0
BITMAP
00
ENDCHAR
STARTCHAR uni000D
ENCODING 13
SWIDTH 108 0
DWIDTH 3 0
BBX 1 1 0 0
BITMAP
00
ENDCHAR
STARTCHAR space
ENCODING 32
SWIDTH 108 0
DWIDTH 3 0
BBX 1 1 0 0
BITMAP
00
ENDCHAR
STARTCHAR exclam
ENCODING 33
SWIDTH 336 0
DWIDTH 11 0
BBX 8 27 1 -1
BITMAP
D5
D5
D5
D5
D5
D5
D5
D5
D5
D5
D5
D5
D5
D5
D5
D5
D5
D5
D5
00
00
FF
FF
00
FF
00
FF
ENDCHAR
STARTCHAR quotedbl
ENCODING 34
SWIDTH 538 0
DWIDTH 17 0
BBX 15 10 1 16
BITMAP
944A
944A
944A
944A
944A
944A
944A
944A
944A
944A
ENDCHAR
STARTCHAR numbersign
ENCODING 35
SWIDTH 1014 0
DWIDTH 32 0
BBX 31 29 1 -2
BITMAP
002D06A0
002904A0
002B05A0
006A0560
005A0D40
0F53F95E
00560B40
0FD5EAFC
00B41A80
00A43284
1EAFD6F8
01A81580
01683500
01482500
01582D00
03502B00
02D06A00
02904A00
02A05A00
7EAF57E0
05A0D400
F53F95E0
0540B400
FD5EAFC0
0B41A800
0A412800
0A816800
1A815800
16835000
ENDCHAR
STARTCHAR dollar
ENCODING 36
SWIDTH 686 0
DWIDTH 22 0
BBX 20 35 1 -5
BITMAP
009000
009000
009000
01FC00
0E0380
18F860
278F10
6C20E0
5BFE40
D60180
B5FE00
A50000
A50000
B5FC00
D60700
53F180
487E40
270320
10FDA0
0C06B0
03FA90
000AD0
000A50
07FAD0
1806B0
0FFDA0
707360
9E0E40
63F180
3C0700
07FC00
000000
009000
009000
009000
ENDCHAR
STARTCHAR percent
ENCODING 37
SWIDTH 1504 0
DWIDTH 48 0
BBX 46 29 1 -2
BITMAP
03F000000000
0E0C01A80000
19E301280000
37B981480000
6C4481580000
5BF2C3500000
D60B42500000
B5ED42900000
AD3562B00000
AD1566A03F00
AD3565A0E1C0
B5ED45219E60
D60945627390
5BF24D44C4C8
6C448B45BF68
27198A4961A4
19E30A8A5E94
0E0E1A8A9254
03F8168AB354
0000148AB254
0000150ADE94
0000350B61A4
00002D0D3F2C
00002B048C48
00002A027390
00004A011E20
00005A00C0C0
000056003F00
0000D4000000
ENDCHAR
STARTCHAR ampersand
ENCODING 38
SWIDTH 1029 0
DWIDTH 33 0
BBX 31 26 1 0
BITMAP
01FF96A0
0E0016A0
18FF96A0
33FF96A0
6C0016A0
59FF96A0
D20016A0
94FF96A0
A50016A0
A50016A0
B5FFF6AE
D67FF6AE
5B0016A0
6BFFF6AE
560016A0
B5FFF6AE
A50016A0
A50016A0
95FFD2BC
D6000AC0
5BFFCB7C
6C7FCD8C
378004E0
19FFC33C
0E0001C0
03FFC07C
ENDCHAR
STARTCHAR quotesingle
ENCODING 39
SWIDTH 257 0
DWIDTH 8 0
BBX 6 10 1 16
BITMAP
94
94
94
94
94
94
94
94
94
94
ENDCHAR
STARTCHAR parenleft
ENCODING 40
SWIDTH 410 0
DWIDTH 13 0
BBX 11 29 1 -2
BITMAP
01E0
0600
18E0
3380
2C20
49E0
5200
D4E0
9500
B500
B500
B500
B500
B500
B500
B500
B500
B500
B500
B500
9500
D4E0
5260
4B80
2CE0
3700
19E0
0E00
03E0
ENDCHAR
STARTCHAR parenright
ENCODING 41
SWIDTH 408 0
DWIDTH 13 0
BBX 11 29 1 -2
BITMAP
F000
0C00
E300
3980
8680
F240
0940
E520
15A0
14A0
14A0
14A0
14A0
14A0
14A0
14A0
14A0
14A0
14A0
14A0
15A0
F520
CD40
3B40
E6C0
1D80
F300
0E00
F800
ENDCHAR
STARTCHAR asterisk
ENCODING 42
SWIDTH 664 0
DWIDTH 21 0
BBX 19 20 1 3
BITMAP
015000
015000
015000
315180
1D5300
675CC0
395180
CC4660
7358C0
19F300
1CE700
3359C0
CE4660
195380
675CC0
0D5700
315180
015000
015000
015000
ENDCHAR
STARTCHAR plus
ENCODING 43
SWIDTH 601 0
DWIDTH 19 0
BBX 17 14 1 6
BITMAP
054800
054800
054800
054800
FD4F80
054800
FD4F80
FD4F80
054800
FD4F80
054800
054800
054800
054800
ENDCHAR
STARTCHAR comma
ENCODING 44
SWIDTH 252 0
DWIDTH 8 0
BBX 6 10 1 -4
BITMAP
B4
B4
B4
B4
B4
34
24
EC
08
F0
ENDCHAR
STARTCHAR hyphen
ENCODING 45
SWIDTH 473 0
DWIDTH 15 0
BBX 13 6 1 10
BITMAP
FFF8
0000
FFF8
FFF8
0000
FFF8
ENDCHAR
STARTCHAR period
ENCODING 46
SWIDTH 255 0
DWIDTH 8 0
BBX 6 6 1 0
BITMAP
FC
FC
00
FC
00
FC
ENDCHAR
STARTCHAR slash
ENCODING 47
SWIDTH 447 0
DWIDTH 14 0
BBX 13 29 1 -3
BITMAP
0158
0350
0250
02D0
02B0
06A0
04A0
05A0
0560
0D40
0940
0B40
0AC0
1A80
1280
1680
1580
3500
2500
2900
2B00
6A00
4A00
5200
5600
D400
9400
A400
AC00
ENDCHAR
STARTCHAR zero
ENCODING 48
SWIDTH 843 0
DWIDTH 27 0
BBX 25 28 1 -1
BITMAP
007F0000
01C1C000
061C3000
0CE39800
1B086C00
367F3600
2D80DA00
6B3E6B00
52C1A500
5680B500
D580D480
B5005680
A5005280
A5005280
A5005A80
A5005280
B5005680
95005480
54809500
52C1A500
4B7F6900
2D80DA00
36FFB600
131C6400
09C1C800
063E3000
0380E000
00FF0000
ENDCHAR
STARTCHAR one
ENCODING 49
SWIDTH 426 0
DWIDTH 14 0
BBX 11 26 1 0
BITMAP
FFE0
0000
FFE0
FFE0
0000
FFE0
12A0
12A0
12A0
12A0
12A0
12A0
12A0
12A0
12A0
12A0
12A0
12A0
12A0
12A0
12A0
12A0
12A0
12A0
12A0
12A0
ENDCHAR
STARTCHAR two
ENCODING 50
SWIDTH 583 0
DWIDTH 19 0
BBX 17 27 1 0
BITMAP
3FC000
C03800
1F8C00
F8F200
021900
7FED00
003580
7F9480
405680
005480
009580
00AD00
014B00
025200
06B400
052C00
0B4800
12D000
35B000
296000
5A4000
FFFE00
FFFE00
000000
FFFE00
000000
FFFE00
ENDCHAR
STARTCHAR three
ENCODING 51
SWIDTH 612 0
DWIDTH 20 0
BBX 18 28 1 -1
BITMAP
3FE000
E03800
0FC600
F8F300
010900
7FE480
001280
7FDA80
406AC0
002AC0
0FCAC0
003A80
0F0E80
0FF300
001900
0FE480
003280
0FCA80
006AC0
002AC0
7FCA80
001280
7FE480
0F0D00
F07300
1FC600
C01800
7FE000
ENDCHAR
STARTCHAR four
ENCODING 52
SWIDTH 622 0
DWIDTH 20 0
BBX 18 26 1 0
BITMAP
016B00
035A00
02D200
069400
04A400
052C00
096800
0A5800
12D000
16B000
35A000
2D2500
6B4500
5A4500
D6C500
000000
FFFFC0
000000
FFFFC0
000000
FFFFC0
FFFFC0
000500
000500
000500
000500
ENDCHAR
STARTCHAR five
ENCODING 53
SWIDTH 691 0
DWIDTH 22 0
BBX 20 27 1 -1
BITMAP
7FFFC0
000000
7FFFC0
7FFFC0
000000
7FFFC0
540000
540000
540000
55FC00
540300
55F8C0
540660
55F120
550CB0
54E2D0
559B50
000D50
000950
07FA50
180690
0FFDA0
70C320
9E1E40
63F180
380700
07F800
ENDCHAR
STARTCHAR six
ENCODING 54
SWIDTH 781 0
DWIDTH 25 0
BBX 23 28 1 -1
BITMAP
00FF00
0381E0
0C3E30
19C3CC
261070
6CFFA0
5B00C0
527F00
D48000
B50000
B57F80
B54060
B53F10
B540C8
B53E24
B56196
B51C52
B5734A
B5012A
95816A
D6FF4A
5B00D2
69FFB4
26186C
13C3D8
0C7E30
0700E0
00FF00
ENDCHAR
STARTCHAR seven
ENCODING 55
SWIDTH 631 0
DWIDTH 20 0
BBX 19 26 1 0
BITMAP
FFF560
002D40
FFAB40
FFAAC0
00CA80
FF5A80
005680
005480
009500
00B500
00AD00
00A900
01AA00
016A00
015A00
015200
035400
02D400
02B400
02A400
06AC00
05A800
052800
054800
0D5800
0B5000
ENDCHAR
STARTCHAR eight
ENCODING 56
SWIDTH 808 0
DWIDTH 26 0
BBX 24 28 1 -1
BITMAP
01FF80
0E00E0
18FF18
3783CC
6C3C36
5BFF92
D6004A
B4FF29
A500AD
A500AD
B5FFA9
D600EB
5BFE1A
6C7FCE
378036
58FF92
DE004A
B5FF29
A500AD
A500AD
B5FFA9
D6006B
5BFFDA
6C7E36
3700EC
19FF98
0E0070
03FFC0
ENDCHAR
STARTCHAR nine
ENCODING 57
SWIDTH 782 0
DWIDTH 25 0
BBX 23 28 1 -1
BITMAP
01FE00
070380
18FC60
33CF30
6C20C8
59FF6C
D601B4
B4FED6
AD0352
AD015A
A5854A
94F94A
53054A
48F94A
26054A
19FD4A
0C014A
03FD4A
00015A
000352
01FED4
0401B4
03FF6C
1C30C8
678790
38FC60
0E01C0
01FE00
ENDCHAR
STARTCHAR colon
ENCODING 58
SWIDTH 262 0
DWIDTH 8 0
BBX 6 15 1 4
BITMAP
FC
00
FC
00
FC
FC
00
00
00
FC
00
FC
00
FC
FC
ENDCHAR
STARTCHAR semicolon
ENCODING 59
SWIDTH 261 0
DWIDTH 8 0
BBX 6 19 1 0
BITMAP
FC
00
FC
00
FC
FC
00
00
00
D4
D4
D4
D4
14
14
64
CC
18
F0
ENDCHAR
STARTCHAR less
ENCODING 60
SWIDTH 670 0
DWIDTH 21 0
BBX 19 24 1 1
BITMAP
000020
0000E0
000380
001C60
0071C0
038E20
1E38E0
71C700
C71C60
38E380
E38E00
1C7000
71C000
8E3C00
39E380
CE38E0
71C720
1C71C0
038E20
00E380
001C60
000700
0000E0
000020
ENDCHAR
STARTCHAR equal
ENCODING 61
SWIDTH 473 0
DWIDTH 15 0
BBX 13 14 1 5
BITMAP
FFF8
0000
FFF8
0000
FFF8
0000
0000
0000
0000
FFF8
0000
FFF8
0000
FFF8
ENDCHAR
STARTCHAR greater
ENCODING 62
SWIDTH 670 0
DWIDTH 21 0
BBX 19 24 1 1
BITMAP
800000
E00000
1C0000
C70000
38E000
8E3800
71C700
1C79E0
E38E20
38F1C0
070720
01B8E0
00E380
071C60
1C71C0
E38E20
8E38E0
71C700
C71C00
38E000
E38000
1C0000
700000
800000
ENDCHAR
STARTCHAR question
ENCODING 63
SWIDTH 693 0
DWIDTH 22 0
BBX 20 27 1 0
BITMAP
07F800
3C0E00
61F180
9F3EC0
704360
2FFDA0
180690
07FA50
000950
000D50
001B50
3572D0
3506B0
3579A0
350760
357CC0
350180
357E00
350000
350000
000000
3F8000
000000
000000
3F8000
000000
3F8000
ENDCHAR
STARTCHAR at
ENCODING 64
SWIDTH 1076 0
DWIDTH 34 0
BBX 32 30 1 -2
BITMAP
000FF800
00700E00
0187F180
033C1E60
04E3C330
099FF8D8
1370066C
36C001B4
2D87F0D2
4B181C4A
5A33E629
D66C3A25
9459C915
B4D66515
B4B41515
B4B41515
B4941515
94D3D515
94581515
5267D5F5
4A30160D
690F1BBB
2581CCE2
3660060C
1B3C11F0
0DC7F000
06700000
038FF000
00E00000
003FF800
ENDCHAR
STARTCHAR A
ENCODING 65
SWIDTH 936 0
DWIDTH 30 0
BBX 28 26 1 0
BITMAP
002D4000
00752000
0054A000
00D6B000
00BAD000
00AA5000
01294800
01552800
0355AC00
02D6A400
02BA9400
04AE5200
05295A00
0D696B00
0B59A900
0AD0A500
12909580
16AF5680
35A05A80
2D606A40
295FA940
6A402560
5ABFD5A0
D68016A0
95801A90
AD000B50
ENDCHAR
STARTCHAR B
ENCODING 66
SWIDTH 862 0
DWIDTH 28 0
BBX 26 26 1 0
BITMAP
FFFFE000
C0003800
DFFFC400
DFFFF200
D0001900
D7FFE580
D4003680
D5FFDA80
D5006A80
D5002AC0
D57FCA80
D57F9280
D5007580
D57FED00
D5001680
D57FCA80
D5002A80
D5002AC0
D57FCA80
D5001280
D57FE580
D57F0900
D5007300
D57FC600
D5001800
D57FE000
ENDCHAR
STARTCHAR C
ENCODING 67
SWIDTH 852 0
DWIDTH 27 0
BBX 26 28 1 -1
BITMAP
003FC000
00E07000
030F0C00
0679E600
09841900
123FCC80
24C036C0
2D9F9B00
5B606C00
52C03000
94801000
B5000000
AD000000
AD000000
AD000000
AD000000
B5000000
95800000
56C03000
5A606C00
693F9B00
24C03280
127FCCC0
19861900
0CF0E200
031F8C00
01C07800
003FC000
ENDCHAR
STARTCHAR D
ENCODING 68
SWIDTH 886 0
DWIDTH 28 0
BBX 26 26 1 0
BITMAP
FFFF8000
C0007000
DFFF1800
DFFFE600
D0003200
D7FFC900
D4006580
D5FF9680
D500DAC0
D5006B40
D5002940
D5002D40
D5002540
D5002540
D5002D40
D5002940
D5006B40
D500DAC0
D5FF9680
D4002580
D7FFC900
D7FE1300
D000E600
DFFF8C00
C0007000
FFFFC000
ENDCHAR
STARTCHAR E
ENCODING 69
SWIDTH 706 0
DWIDTH 23 0
BBX 20 26 1 0
BITMAP
D5FFF0
D50000
D5FFF0
D5FFF0
D50000
D5FFF0
D50000
D50000
D50000
D50000
D5FC00
D50000
D5FC00
D5FC00
D50000
D5FC00
D50000
D50000
D50000
D50000
D5FFF0
D5FFF0
D50000
D5FFF0
D50000
D5FFF0
ENDCHAR
STARTCHAR F
ENCODING 70
SWIDTH 683 0
DWIDTH 22 0
BBX 20 26 1 0
BITMAP
D5FFF0
D50000
D5FFF0
D5FFF0
D50000
D5FFF0
D50000
D50000
D50000
D50000
D50000
D5FFE0
D5FFE0
D50000
D5FFE0
D50000
D5FFE0
D50000
D50000
D50000
D50000
D50000
D50000
D50000
D50000
D50000
ENDCHAR
STARTCHAR G
ENCODING 71
SWIDTH 908 0
DWIDTH 29 0
BBX 27 28 1 -1
BITMAP
003FC000
00E07000
030F0C00
0679E600
09841900
123FCC80
24C036C0
2D9F9B00
5B606C00
52C03000
94801000
B5000000
AD000000
AD0015A0
AD0015A0
AD0015A0
A50015A0
958015A0
568015A0
5A6035A0
693FF5A0
24C015A0
167FF5A0
198F15A0
0CF075A0
031F95A0
01C035A0
003FE000
ENDCHAR
STARTCHAR H
ENCODING 72
SWIDTH 901 0
DWIDTH 29 0
BBX 26 26 1 0
BITMAP
D5003540
D5003540
D5003540
D5003540
D5003540
D5003540
D5003540
D5003540
D5003540
D5003540
D5FFF540
D5003540
D5FFF540
D5FFF540
D5003540
D5FFF540
D5003540
D5003540
D5003540
D5003540
D5003540
D5003540
D5003540
D5003540
D5003540
D5003540
ENDCHAR
STARTCHAR I
ENCODING 73
SWIDTH 338 0
DWIDTH 11 0
BBX 8 26 1 0
BITMAP
D5
D5
D5
D5
D5
D5
D5
D5
D5
D5
D5
D5
D5
D5
D5
D5
D5
D5
D5
D5
D5
D5
D5
D5
D5
D5
ENDCHAR
STARTCHAR J
ENCODING 74
SWIDTH 434 0
DWIDTH 14 0
BBX 11 27 1 -1
BITMAP
0AA0
0AA0
0AA0
0AA0
0AA0
0AA0
0AA0
0AA0
0AA0
0AA0
0AA0
0AA0
0AA0
0AA0
0AA0
0AA0
0AA0
0AA0
12A0
F4A0
0D20
FB40
C640
1C80
F300
0E00
F800
ENDCHAR
STARTCHAR K
ENCODING 75
SWIDTH 815 0
DWIDTH 26 0
BBX 24 26 1 0
BITMAP
D501AD
D5016B
D5035A
D502D6
D506B4
D505AC
D50D68
D50B58
D51AD0
D516B0
D535A0
D52D60
D56B40
D54B40
D52D60
D525A0
D516B0
D51AD0
D50B58
D50D68
D505AC
D506B4
D502D6
D5035A
D5016B
D501AD
ENDCHAR
STARTCHAR L
ENCODING 76
SWIDTH 604 0
DWIDTH 19 0
BBX 17 26 1 0
BITMAP
D50000
D50000
D50000
D50000
D50000
D50000
D50000
D50000
D50000
D50000
D50000
D50000
D50000
D50000
D50000
D50000
D50000
D50000
D50000
D50000
D5FF80
D5FF80
D50000
D5FF80
D50000
D5FF80
ENDCHAR
STARTCHAR M
ENCODING 77
SWIDTH 920 0
DWIDTH 29 0
BBX 27 26 1 0
BITMAP
D2000D60
CB000B60
ED001AE0
F58016A0
D68035A0
DAC02D20
EB404BA0
DD605AA0
D5A096A0
D6B0A4A0
D6D12CA0
D7494AA0
D56A54A0
D5A694A0
D495ACA0
D552B4A0
D54A54A0
D52954A0
D53594A0
D50014A0
D50014A0
D50014A0
D50014A0
D50014A0
D50014A0
D50014A0
ENDCHAR
STARTCHAR N
ENCODING 78
SWIDTH 877 0
DWIDTH 28 0
BBX 26 26 1 0
BITMAP
DAC02AC0
E9602AC0
E5A02AC0
D4B02AC0
D2D02AC0
EB482AC0
DD2C2AC0
D4B42AC0
D2D22AC0
D75A2AC0
D5692AC0
D5A5AAC0
D496AAC0
D55A6AC0
D5696AC0
D525AAC0
D514BAC0
D512D2C0
D50B4AC0
D50D2EC0
D504B5C0
D502D6C0
D5035AC0
D50169C0
D501A5C0
D500D6C0
ENDCHAR
STARTCHAR O
ENCODING 79
SWIDTH 933 0
DWIDTH 30 0
BBX 28 28 1 -1
BITMAP
003FC000
00E07000
030F0C00
0679E600
09841900
123FCC80
24C036C0
2D9F9B40
5B606D20
52C034A0
948012B0
B5000A90
AD000A50
AD000A50
AD000B50
AD000A50
B5000A90
958012B0
56C034A0
5A606D20
693F9B40
24C03240
127FC480
19861900
0CF0E200
031F8C00
01C07000
003FC000
ENDCHAR
STARTCHAR P
ENCODING 80
SWIDTH 850 0
DWIDTH 27 0
BBX 25 26 1 0
BITMAP
FFFFC000
C0003800
DFFF8C00
DFFFF600
D0001B00
D7FFCD00
D4003580
D5FF9680
D5005A80
D5004A80
D5005A80
D57FD280
D57F1480
D5006580
D57FC900
D5003200
D57FE600
D5001C00
D57FF000
D5000000
D5000000
D5000000
D5000000
D5000000
D5000000
D5000000
ENDCHAR
STARTCHAR Q
ENCODING 81
SWIDTH 937 0
DWIDTH 30 0
BBX 28 31 1 -4
BITMAP
003FC000
00E07000
030F0C00
0679E600
09841900
123FCC80
24C036C0
2D9F9B40
5B606D20
52C034A0
948012B0
B5000A90
AD000A50
AD000A50
AD000B50
AD004A50
B5012A90
9584B2B0
56C2B4A0
5A626D20
693F9B40
24C03240
127FC480
19861900
0CF0E200
031F8D80
01C07680
003FDAC0
00000B00
00000C00
00000400
ENDCHAR
STARTCHAR R
ENCODING 82
SWIDTH 843 0
DWIDTH 27 0
BBX 25 26 1 0
BITMAP
FFFFC000
C0003800
DFFF8C00
DFFFF600
D0001B00
D7FFCD00
D4003580
D5FF9680
D5005280
D5005A80
D5005280
D57F9480
D5002580
D57FCD00
D5001B00
D57FE600
D57F0C00
D5007800
D57FE800
D506A800
D502AC00
D502B400
D5025400
D5015600
D5015A00
D501AB00
ENDCHAR
STARTCHAR S
ENCODING 83
SWIDTH 682 0
DWIDTH 22 0
BBX 20 28 1 -1
BITMAP
03FC00
0E0380
18F860
278F30
4C20C0
5BFE40
960180
A5FE00
AD0000
AD0000
A5FC00
940700
53F180
48FE40
270360
31FDA0
0C06A0
03F290
000AD0
000AD0
07FA90
1806B0
0FFDA0
716360
9E1E40
63F180
3C0700
07FC00
ENDCHAR
STARTCHAR T
ENCODING 84
SWIDTH 591 0
DWIDTH 19 0
BBX 17 26 1 0
BITMAP
FFFF80
000000
FFFF80
FFFF80
000000
FFFF80
0D5000
0D5000
0D5000
0D5000
0D5000
0D5000
0D5000
0D5000
0D5000
0D5000
0D5000
0D5000
0D5000
0D5000
0D5000
0D5000
0D5000
0D5000
0D5000
0D5000
ENDCHAR
STARTCHAR U
ENCODING 85
SWIDTH 905 0
DWIDTH 29 0
BBX 27 27 1 -1
BITMAP
95001560
95001560
95001560
95001560
95001560
95001560
95001560
95001560
95001560
95001560
95001560
95001560
95001560
95001560
95001560
95001560
D5802540
56802940
5A60CA40
693F92C0
24C06480
367FCD00
1B0E3300
0CE0E600
073F1800
01C07000
007F8000
ENDCHAR
STARTCHAR V
ENCODING 86
SWIDTH 940 0
DWIDTH 30 0
BBX 29 26 1 0
BITMAP
AD000B58
95801AD0
568012B0
5A8014A0
6A403520
29402D40
25602B40
35A04AC0
16A05280
1290D480
0A50B500
0B58AD00
0D692B00
05294A00
04AF5200
02BAD400
02D2B400
0354AC00
01552800
012D4800
00AB5000
00AAD000
00D2B000
0054A000
00752000
002D6000
ENDCHAR
STARTCHAR W
ENCODING 87
SWIDTH 1161 0
DWIDTH 37 0
BBX 36 26 1 0
BITMAP
AD06AC1AB0
A5052C14A0
95056C15A0
548D5C3560
5689522540
5A8A5A2940
4A8A9A2A40
2A5ABB6AC0
2956A95A80
2D55A55680
3555355480
153554D580
14AD56B500
12AB5AAD00
1AAA4AA900
0ACAEB2A00
0A5AA96A00
0956AD5A00
05D5A75600
0595165400
04A5169400
04AD12B400
03AB1EAC00
036A0DA800
034A0D2800
03560D5800
ENDCHAR
STARTCHAR X
ENCODING 88
SWIDTH 876 0
DWIDTH 28 0
BBX 28 26 0 0
BITMAP
DAC06D60
69605A40
25A09680
1691A580
1A596900
096B5A00
0D2AD200
04B4B400
02DD2C00
036B4800
0152D000
00B4B000
00AD2000
004B5000
00DAD000
0096A800
01A5AC00
0169B400
025AD200
06974B00
05A52D00
0969A580
1A589680
16D05A40
34B06960
6D6035B0
ENDCHAR
STARTCHAR Y
ENCODING 89
SWIDTH 789 0
DWIDTH 25 0
BBX 24 26 1 0
BITMAP
AB00AB
B5016A
558156
5A82D4
2AC2AC
2D44A8
156548
14A950
0AAAD0
0A5AA0
0D55A0
053540
06AB40
02EA80
025680
015500
01A500
00AB00
00AB00
00AB00
00AB00
00AB00
00AB00
00AB00
00AB00
00AB00
ENDCHAR
STARTCHAR Z
ENCODING 90
SWIDTH 854 0
DWIDTH 27 0
BBX 25 26 1 0
BITMAP
FFFFFF80
00000180
FFFFF600
FFFFCC80
00013B00
FFFE6680
0008D980
FFF33300
0006CC80
00199980
00366600
00CCCC00
019B3000
06666000
0CD98000
33330000
66EC0000
99980000
3363FF80
CCC40000
9B1FFF80
667FFF80
D8000000
37FFFF80
C0000000
FFFFFF80
ENDCHAR
STARTCHAR bracketleft
ENCODING 91
SWIDTH 320 0
DWIDTH 10 0
BBX 8 29 1 -2
BITMAP
FF
C0
DF
D0
D7
D7
D4
D4
D4
D4
D4
D4
D4
D4
D4
D4
D4
D4
D4
D4
D4
D4
D4
D4
D7
D0
DF
C0
FF
ENDCHAR
STARTCHAR backslash
ENCODING 92
SWIDTH 448 0
DWIDTH 14 0
BBX 13 29 1 -3
BITMAP
AC00
B400
9400
5400
5600
5A00
4A00
2A00
2B00
2D00
2500
1500
1580
1680
1280
0A80
0AC0
0B40
0940
0540
0560
05A0
04A0
02A0
02B0
02D0
0250
0150
0158
ENDCHAR
STARTCHAR bracketright
ENCODING 93
SWIDTH 319 0
DWIDTH 10 0
BBX 8 29 1 -2
BITMAP
FF
01
FD
0D
ED
ED
2D
2D
2D
2D
2D
2D
2D
2D
2D
2D
2D
2D
2D
2D
2D
2D
2D
2D
ED
0D
FD
01
FF
ENDCHAR
STARTCHAR asciicircum
ENCODING 94
SWIDTH 475 0
DWIDTH 15 0
BBX 13 13 1 10
BITMAP
0500
0C80
0A80
0AC0
1340
1540
3520
2CA0
28B0
48D0
5850
D048
B028
ENDCHAR
STARTCHAR underscore
ENCODING 95
SWIDTH 511 0
DWIDTH 16 0
BBX 14 6 1 -6
BITMAP
FFFC
0000
FFFC
0000
FFFC
FFFC
ENDCHAR
STARTCHAR grave
ENCODING 96
SWIDTH 472 0
DWIDTH 15 0
BBX 13 7 1 23
BITMAP
3000
8C00
6300
18C0
0630
0188
0060
ENDCHAR
STARTCHAR a
ENCODING 97
SWIDTH 832 0
DWIDTH 27 0
BBX 24 24 1 -1
BITMAP
00FF00
0380C0
0C7E30
19C398
36386C
2CFF36
4900DA
527E6B
948129
B500A5
AD0095
A900D5
AD00D5
A500D5
B580D5
D6C1D5
5A7ED5
6981D5
24FFD5
1300D5
0CFFD5
0600D5
01F7D5
003800
ENDCHAR
STARTCHAR b
ENCODING 98
SWIDTH 720 0
DWIDTH 23 0
BBX 21 23 1 0
BITMAP
FFFC00
FFFFC0
C00060
DFFF30
D000D0
D7FE58
D40168
D40128
D40168
D5FE58
D400D0
D5FF30
D40190
D5FE58
D40348
D40168
D40168
D5FF48
D400D0
D5FF90
D5FE20
D401C0
D5FF00
ENDCHAR
STARTCHAR c
ENCODING 99
SWIDTH 736 0
DWIDTH 24 0
BBX 22 25 1 -1
BITMAP
001800
01FF80
070060
0CFF10
1B80C8
367E24
2DC190
4B3CC0
526740
948180
B50000
AD0000
A90000
AD0000
A50000
B58000
D6C180
5A7E40
6980D0
24FF30
13186C
19C398
067E30
0380C0
00FF00
ENDCHAR
STARTCHAR d
ENCODING 100
SWIDTH 833 0
DWIDTH 27 0
BBX 25 23 1 0
BITMAP
FFFC0000
FFFFC000
C0007000
DFFF9800
D000EC00
D7FF3600
D401DA00
D5FE4B00
D5032D00
D500B500
D5009580
D500D580
D500D580
D5009500
D501A500
D5FF6900
D400CB00
D7FF9200
D7FC6400
D003CC00
DFFE3000
C000E000
FFFF8000
ENDCHAR
STARTCHAR e
ENCODING 101
SWIDTH 666 0
DWIDTH 21 0
BBX 19 23 1 0
BITMAP
D5FFE0
D5FFE0
D50000
D5FFE0
D50000
D5FFE0
D50000
D50000
D50000
D5FFC0
D50000
D5FFC0
D50000
D5FFC0
D5FFC0
D50000
D50000
D5FFE0
D5FFE0
D50000
D5FFE0
D50000
D5FFE0
ENDCHAR
STARTCHAR f
ENCODING 102
SWIDTH 625 0
DWIDTH 20 0
BBX 18 23 1 0
BITMAP
D5FFC0
D5FFC0
D50000
D5FFC0
D50000
D5FFC0
D50000
D50000
D50000
D50000
D5FF80
D50000
D5FF80
D50000
D5FF80
D50000
D50000
D50000
D50000
D50000
D50000
D50000
D50000
ENDCHAR
STARTCHAR g
ENCODING 103
SWIDTH 827 0
DWIDTH 26 0
BBX 24 25 1 -1
BITMAP
001800
01FF80
070060
0CFF10
1B80C8
367E24
2DC190
4B3CC0
526740
948180
B50000
AD0000
A90000
AD0095
A50095
B58095
D6C195
5A7F95
698095
24FF95
131895
19C395
067E95
038095
00FF00
ENDCHAR
STARTCHAR h
ENCODING 104
SWIDTH 830 0
DWIDTH 27 0
BBX 24 23 1 0
BITMAP
D500B5
D500B5
D500B5
D500B5
D500B5
D500B5
D500B5
D500B5
D5FFB5
D5FFB5
D500B5
D5FFB5
D500B5
D5FFB5
D500B5
D500B5
D500B5
D500B5
D500B5
D500B5
D500B5
D500B5
D500B5
ENDCHAR
STARTCHAR i
ENCODING 105
SWIDTH 337 0
DWIDTH 11 0
BBX 8 23 1 0
BITMAP
D5
D5
D5
D5
D5
D5
D5
D5
D5
D5
D5
D5
D5
D5
D5
D5
D5
D5
D5
D5
D5
D5
D5
ENDCHAR
STARTCHAR j
ENCODING 106
SWIDTH 393 0
DWIDTH 13 0
BBX 10 26 1 -3
BITMAP
2540
2540
2540
2540
2540
2540
2540
2540
2540
2540
2540
2540
2540
2540
2540
2540
2540
2D40
EB40
9AC0
7680
CD80
3B00
E600
1C00
F000
ENDCHAR
STARTCHAR k
ENCODING 107
SWIDTH 801 0
DWIDTH 26 0
BBX 24 23 1 0
BITMAP
D501AD
D5016B
D50252
D50294
D504A4
D50528
D50B48
D51AD0
D516B0
D535A0
D52D60
D54B40
D56B40
D52D60
D534A0
D51290
D50A50
D50948
D5052C
D506B4
D502D6
D5035A
D5016B
ENDCHAR
STARTCHAR l
ENCODING 108
SWIDTH 583 0
DWIDTH 19 0
BBX 17 23 1 0
BITMAP
D50000
D50000
D50000
D50000
D50000
D50000
D50000
D50000
D50000
D50000
D50000
D50000
D50000
D50000
D50000
D50000
D50000
D5FF80
D5FF80
D50000
D5FF80
D50000
D5FF80
ENDCHAR
STARTCHAR m
ENCODING 109
SWIDTH 1167 0
DWIDTH 37 0
BBX 35 24 1 0
BITMAP
007003C000
03FF1FFC00
0C01F00600
19FE6FF900
2601B80C80
6CFCDFF240
5B034C1940
56792BE520
D584AE35A0
9502AC14A0
9502AC16A0
9502AC16A0
9502AC16A0
9502AC16A0
9502AC16A0
9502AC16A0
9502AC16A0
9502AC16A0
9502AC16A0
9502AC16A0
9502AC16A0
9502AC16A0
9502AC16A0
9502AC16A0
ENDCHAR
STARTCHAR n
ENCODING 110
SWIDTH 787 0
DWIDTH 25 0
BBX 23 23 1 0
BITMAP
D2C052
CB4052
ED2052
F5A052
D69052
DA5852
E96852
D52C52
D4B452
D2D252
D74A52
D56952
D5A5D2
D496B2
D45AD2
D44B52
D42D2A
D434B2
D41292
D41A5A
D4096A
D405A6
D406B6
ENDCHAR
STARTCHAR o
ENCODING 111
SWIDTH 833 0
DWIDTH 27 0
BBX 25 25 1 -1
BITMAP
001C0000
01FF8000
07006000
0CFF1000
1B80C800
367E2400
2DC19200
4B3CCA00
52676900
9481A500
B5009500
AD005580
A9005580
AD005580
A500D500
B580B500
D6C12D00
5A7E6B00
6980DA00
24FF3600
13186C00
19C39800
067E3000
0380C000
00FF0000
ENDCHAR
STARTCHAR p
ENCODING 112
SWIDTH 781 0
DWIDTH 25 0
BBX 23 23 1 0
BITMAP
FFFC00
FFFFC0
C00070
DFFF98
D000C8
D7FF24
D40194
D5FE52
D5034A
D5014A
D57F5A
D500D6
D57FB4
D57E6C
D501C8
D57E18
D500E0
D57F80
D50000
D50000
D50000
D50000
D50000
ENDCHAR
STARTCHAR q
ENCODING 113
SWIDTH 788 0
DWIDTH 25 0
BBX 23 26 1 -3
BITMAP
003FFE
03FFFE
0C0002
19FFF2
360012
6CFFD2
5B0052
D67F52
B58152
AD0152
AD0152
AD0152
A50152
94FD52
D20152
49FD52
6C7D52
338152
18FD52
0E0152
01FD52
000152
000152
000152
000152
000152
ENDCHAR
STARTCHAR r
ENCODING 114
SWIDTH 831 0
DWIDTH 27 0
BBX 25 23 1 0
BITMAP
FFFF0000
FFFFF000
C0001800
DFFFE400
D0003200
D7FFCB00
D4006D00
D5FFB500
D500D580
D5005580
D57F9500
D5002500
D57FC900
D5001B00
D57FE600
D57F0C00
D5003800
D57FD000
D5055800
D5056800
D506A800
D502A400
D502D400
ENDCHAR
STARTCHAR s
ENCODING 115
SWIDTH 683 0
DWIDTH 22 0
BBX 20 24 1 -1
BITMAP
03FE00
1C0380
31F860
6F0F10
5860C0
97FE40
A40180
AC0000
A40000
93FE00
580380
67FCC0
300760
0FF1A0
007EB0
0002D0
0002D0
1C0690
63F9A0
980320
C7FCC0
300180
0FFE00
004000
ENDCHAR
STARTCHAR t
ENCODING 116
SWIDTH 588 0
DWIDTH 19 0
BBX 17 23 1 0
BITMAP
FFFF80
FFFF80
000000
FFFF80
000000
FFFF80
000000
0D5000
0D5000
0D5000
0D5000
0D5000
0D5000
0D5000
0D5000
0D5000
0D5000
0D5000
0D5000
0D5000
0D5000
0D5000
0D5000
ENDCHAR
STARTCHAR u
ENCODING 117
SWIDTH 795 0
DWIDTH 25 0
BBX 23 24 1 -1
BITMAP
95016A
95016A
95016A
95016A
95016A
95016A
95016A
95016A
95016A
95016A
95016A
95016A
95016A
95016A
D5814A
568352
5A7ED6
4901B4
2CFF6C
3610D8
19C3B0
0C7C60
0381C0
00FF00
ENDCHAR
STARTCHAR v
ENCODING 118
SWIDTH 855 0
DWIDTH 27 0
BBX 26 23 1 0
BITMAP
AD006A40
B5005A80
D4805680
52809580
4AC0A500
2B41A900
2D416A00
35215A00
14A25600
12B29400
0AD6A400
0B55AC00
0D556800
05295800
04AA5000
06BA9000
02D6B000
0355A000
01652000
01294000
01EB4000
00DAC000
00D68000
ENDCHAR
STARTCHAR w
ENCODING 119
SWIDTH 1129 0
DWIDTH 36 0
BBX 34 24 1 -1
BITMAP
9505282B40
9505282B40
9505282B40
9505282B40
9505282B40
9505282B40
9505282B40
9505282B40
9505282B40
9505282B40
9505282B40
9505282B40
9505282B40
9505282B40
9505282B40
958D6C6A40
56F95FDA80
5B06583680
69FCBFE580
2603301900
13FE7FF200
0C01E00C00
07DF3EF800
00F003C000
ENDCHAR
STARTCHAR x
ENCODING 120
SWIDTH 790 0
DWIDTH 25 0
BBX 24 23 1 0
BITMAP
B6825B
D246D2
4B65B4
2D292C
34BB48
12D2D0
1B74B0
096D20
054B60
06D240
02B680
012D80
034980
02DAC0
049640
0DA560
0969B0
1A5E90
369258
25B968
696DA4
5B4496
B6C2DB
ENDCHAR
STARTCHAR y
ENCODING 121
SWIDTH 733 0
DWIDTH 23 0
BBX 23 23 0 0
BITMAP
D5016A
528156
2AC2D4
2942AC
1525A8
16A558
0A9950
0B4A90
0572A0
05D520
02B540
02AB40
016A80
015680
00D500
00A500
00A500
00A500
00A500
00A500
00A500
00A500
00A500
ENDCHAR
STARTCHAR z
ENCODING 122
SWIDTH 714 0
DWIDTH 23 0
BBX 21 22 1 0
BITMAP
FFFDE8
001A48
FFD6D0
0024B0
FFED20
004B40
00D2C0
00B480
012D80
034900
02DA00
049600
0DA400
096800
1A5800
16D000
25B7F8
692FF8
5B4000
92DFF8
B48000
EDFFF8
ENDCHAR
STARTCHAR braceleft
ENCODING 123
SWIDTH 396 0
DWIDTH 13 0
BBX 11 34 1 -7
BITMAP
03E0
0600
08E0
1300
3460
2DE0
2B00
2A00
2A00
2A00
2A00
2A00
2A00
2A00
0A00
F200
0E00
E400
1200
CA00
6A00
2A00
2A00
2A00
2A00
2A00
2A00
2900
2DE0
3600
13E0
0860
0700
01E0
ENDCHAR
STARTCHAR bar
ENCODING 124
SWIDTH 266 0
DWIDTH 9 0
BBX 6 29 1 -3
BITMAP
D4
D4
D4
D4
D4
D4
D4
D4
D4
D4
D4
D4
D4
D4
D4
D4
D4
D4
D4
D4
D4
D4
D4
D4
D4
D4
D4
D4
D4
ENDCHAR
STARTCHAR braceright
ENCODING 125
SWIDTH 396 0
DWIDTH 13 0
BBX 11 34 1 -7
BITMAP
F000
0C00
E200
3900
CD00
F580
1680
1280
1280
1280
1280
1280
1280
12E0
0A60
0980
04E0
0F00
19E0
1300
1280
1280
1280
1280
1280
1280
1680
1680
F580
0D00
FB00
C600
3C00
F000
ENDCHAR
STARTCHAR asciitilde
ENCODING 126
SWIDTH 665 0
DWIDTH 21 0
BBX 19 6 1 18
BITMAP
0FFCA0
3FFCA0
4001A0
DFFE60
9000C0
B3FF80
ENDCHAR
STARTCHAR uni00A0
ENCODING 160
SWIDTH 108 0
DWIDTH 3 0
BBX 1 1 0 0
BITMAP
00
ENDCHAR
STARTCHAR exclamdown
ENCODING 161
SWIDTH 336 0
DWIDTH 11 0
BBX 8 27 1 -1
BITMAP
D5
D5
D5
D5
D5
D5
D5
D5
D5
D5
D5
D5
D5
D5
D5
D5
D5
D5
D5
00
00
FF
FF
00
FF
00
FF
ENDCHAR
STARTCHAR cent
ENCODING 162
SWIDTH 708 0
DWIDTH 23 0
BBX 21 32 1 -3
BITMAP
004C00
004C00
004C00
004C00
007C00
03CF80
0610C0
19FF30
330198
24FE68
498320
527CC0
D4C600
B58300
A50000
AD0000
AD0000
B50000
948300
56FEC0
5B1180
6DE760
367CC8
138390
0CFE60
0701C0
01FF00
000000
004C00
004C00
004C00
004C00
ENDCHAR
STARTCHAR sterling
ENCODING 163
SWIDTH 689 0
DWIDTH 22 0
BBX 20 27 1 0
BITMAP
01FE00
0F03C0
187860
37CF90
6C20E0
59FF40
520180
D4FE00
950000
950000
950000
950000
957F80
950000
957F80
950000
957F80
950000
950000
950000
950000
95FF80
95FF80
950000
95FF80
950000
95FF80
ENDCHAR
STARTCHAR currency
ENCODING 164
SWIDTH 715 0
DWIDTH 23 0
BBX 21 25 1 -1
BITMAP
1800C0
2C01A0
B40368
D20258
49FC90
260320
3CF9C0
1B06C0
160340
340140
2C0120
2801A0
2801A0
2C01A0
240160
140140
120240
29FCA0
3C2160
6B8EB0
DAFAD8
B60348
240120
1800C0
080080
ENDCHAR
STARTCHAR yen
ENCODING 165
SWIDTH 796 0
DWIDTH 26 0
BBX 24 26 1 0
BITMAP
AB00AD
95012A
548152
4A8254
2A42B4
2D46A8
152568
16AD50
0AAAD0
0B5AA0
0554A0
05D540
02A940
02AAC0
035A80
015580
01B500
00A900
1EA9F8
00A900
1EA9F8
1EA9F8
00A900
00A900
00A900
00A900
ENDCHAR
STARTCHAR brokenbar
ENCODING 166
SWIDTH 263 0
DWIDTH 8 0
BBX 6 29 1 -3
BITMAP
D4
D4
D4
D4
D4
D4
D4
D4
D4
D4
D4
D4
D4
00
00
00
00
D4
D4
D4
D4
D4
D4
D4
D4
D4
D4
D4
D4
ENDCHAR
STARTCHAR section
ENCODING 167
SWIDTH 108 0
DWIDTH 3 0
BBX 1 1 0 0
BITMAP
00
ENDCHAR
STARTCHAR dieresis
ENCODING 168
SWIDTH 556 0
DWIDTH 18 0
BBX 16 3 1 24
BITMAP
942B
942B
942B
ENDCHAR
STARTCHAR copyright
ENCODING 169
SWIDTH 869 0
DWIDTH 28 0
BBX 26 26 1 1
BITMAP
007F0000
01FFE000
07807800
0E001C00
180C0E00
307F8700
31E0E300
63807180
63002180
C6000080
C60000C0
C40000C0
C40000C0
C40000C0
C60000C0
C60000C0
C6000080
63002180
61807180
30E1E300
387F8600
1C040E00
0E001C00
07807000
01FFE000
003F0000
ENDCHAR
STARTCHAR ordfeminine
ENCODING 170
SWIDTH 833 0
DWIDTH 27 0
BBX 24 24 1 -1
BITMAP
00FF00
0380E0
0C7E30
19C1C8
323C64
24FFB6
6900DA
5A7F69
D6C1AD
9580B5
B500D5
A50055
A50055
B50055
958055
56C155
5B7E55
6D8155
367F55
1B0055
0CFF55
070055
01F755
001800
ENDCHAR
STARTCHAR guillemotleft
ENCODING 171
SWIDTH 911 0
DWIDTH 29 0
BBX 27 16 1 4
BITMAP
00080020
003800E0
01C00780
07181C60
38E0E1C0
E38B8E20
1C7078E0
71C1C700
8E031C00
39E0E380
CE3B9C60
71C1C700
1C7038E0
03880E20
00E001C0
00180060
ENDCHAR
STARTCHAR logicalnot
ENCODING 172
SWIDTH 718 0
DWIDTH 23 0
BBX 21 10 1 7
BITMAP
FFFF58
000158
FFFF58
FFFF58
000158
FFFF58
000158
000158
000158
000158
ENDCHAR
STARTCHAR registered
ENCODING 174
SWIDTH 869 0
DWIDTH 28 0
BBX 26 26 1 1
BITMAP
007F0000
01FFE000
07807800
0E001C00
18000E00
30000700
30FF8300
60FFC180
60C06180
C0C06080
C0C060C0
C0C060C0
C0C1C0C0
C0FF80C0
C0C300C0
C0C300C0
C0C18080
60C18180
60C0C180
30C0C300
38000600
1C000E00
0E001C00
07807000
01FFE000
003F0000
ENDCHAR
STARTCHAR degree
ENCODING 176
SWIDTH 330 0
DWIDTH 11 0
BBX 9 8 1 25
BITMAP
3E00
4300
BD00
A280
A280
B500
4900
3E00
ENDCHAR
STARTCHAR plusminus
ENCODING 177
SWIDTH 598 0
DWIDTH 19 0
BBX 17 19 1 1
BITMAP
054800
054800
054800
054800
FD4F80
054800
FD4F80
FD4F80
054800
FD4F80
054800
054800
054800
054800
000000
000000
7FFF00
000000
7FFF00
ENDCHAR
STARTCHAR uni00B2
ENCODING 178
SWIDTH 435 0
DWIDTH 14 0
BBX 12 20 1 6
BITMAP
3F80
E0E0
0F30
7F90
0050
00D0
00A0
0160
0340
0680
0580
0900
1A00
3400
2C00
5800
8000
FFE0
0000
FFE0
ENDCHAR
STARTCHAR uni00B3
ENCODING 179
SWIDTH 515 0
DWIDTH 17 0
BBX 15 22 1 4
BITMAP
3F00
E1E0
1C30
FFD8
0068
7F28
00AC
00AC
1E2C
1FE8
0010
1FC8
0064
1F94
0056
0056
7FD4
0034
79EC
1F18
E070
7FC0
ENDCHAR
STARTCHAR acute
ENCODING 180
SWIDTH 472 0
DWIDTH 15 0
BBX 13 7 1 23
BITMAP
0060
0188
0630
18C0
E300
4C00
3000
ENDCHAR
STARTCHAR uni00B5
ENCODING 181
SWIDTH 802 0
DWIDTH 26 0
BBX 23 26 1 -3
BITMAP
D501AA
D501AA
D501AA
D501AA
D501AA
D501AA
D501AA
D501AA
D501AA
D501AA
D501AA
D501AA
D501AA
D501AA
D5012A
D5034A
D57ED2
D501B4
D57F24
D518C8
D54390
D57E60
D501C0
D57F00
D50000
D50000
ENDCHAR
STARTCHAR paragraph
ENCODING 182
SWIDTH 676 0
DWIDTH 22 0
BBX 19 26 1 -3
BITMAP
007FE0
07FFE0
180020
33FFA0
2600A0
49FEA0
D302A0
94F2A0
A592A0
A512A0
B5F2A0
D612A0
5BF2A0
4C72A0
2712A0
31F2A0
0E12A0
03F2A0
0012A0
0012A0
0012A0
0012A0
0012A0
0012A0
0012A0
001EE0
ENDCHAR
STARTCHAR periodcentered
ENCODING 183
SWIDTH 260 0
DWIDTH 8 0
BBX 6 6 1 12
BITMAP
FC
00
FC
00
FC
FC
ENDCHAR
STARTCHAR cedilla
ENCODING 184
SWIDTH 321 0
DWIDTH 10 0
BBX 8 10 1 -12
BITMAP
09
39
41
5F
D0
D0
50
4F
60
1F
ENDCHAR
STARTCHAR uni00B9
ENCODING 185
SWIDTH 359 0
DWIDTH 12 0
BBX 9 18 1 8
BITMAP
FF80
0000
FF80
FF80
1A80
1A80
1A80
1A80
1A80
1A80
1A80
1A80
1A80
1A80
1A80
1A80
1A80
1A80
ENDCHAR
STARTCHAR ordmasculine
ENCODING 186
SWIDTH 835 0
DWIDTH 27 0
BBX 25 25 1 -1
BITMAP
001C0000
01FFC000
07006000
0CFF1800
1980CC00
367E2400
2CC19200
4B3C4B00
52632D00
D481B500
B500D580
A5005480
A5005680
A5005480
B5005580
95809500
56C1A500
5B7E6900
6980DA00
24FF3600
13186400
09C39800
063E3000
0380C000
00FF0000
ENDCHAR
STARTCHAR guillemotright
ENCODING 187
SWIDTH 912 0
DWIDTH 29 0
BBX 27 16 1 4
BITMAP
80020000
E001C000
1C007000
C7010E00
38E0E380
8E3A38E0
71C1C700
1C7071E0
03880E20
3CE0F3C0
E3998E60
1C7071E0
71C1C700
8E023800
3800E000
C0010000
ENDCHAR
STARTCHAR onequarter
ENCODING 188
SWIDTH 1236 0
DWIDTH 40 0
BBX 38 29 1 -3
BITMAP
FF805A0000
0000560000
FF80D40000
FF80940000
1280A40000
1280AC0960
1281A80A40
1281281280
1281481480
1281582580
1283502D00
1282506B00
1282905A00
1282B0D650
1286A0B450
1284A1AC50
1285204000
128561FFFC
000D400000
000941FFFC
000A400000
000AC1FFFC
001A81FFFC
0012800050
0014800050
0015800050
0035000000
0025000000
002B000000
ENDCHAR
STARTCHAR onehalf
ENCODING 189
SWIDTH 1154 0
DWIDTH 37 0
BBX 35 29 1 -3
BITMAP
FF805A0000
0000560000
FF80D40000
FF80940000
1280A40000
1280AC0000
1281A8FF80
12812900C0
128148FF60
12815881A0
12835001A0
1282500160
1282900340
1282B00280
1286A00580
1284A00900
1285201A00
1285601600
000D402C00
0009406800
000A40D000
000AC1B000
001A800000
001281FFC0
0014800000
001581FFC0
0035000000
0025000000
002B000000
ENDCHAR
STARTCHAR threequarters
ENCODING 190
SWIDTH 1345 0
DWIDTH 43 0
BBX 41 29 1 -3
BITMAP
7F0006A00000
C1E005A00000
1C3005200000
FF9805400000
00680D400000
7F280B40A400
00AC0A412800
00AC0A814800
1E281A825800
1FE816829000
00301484B000
1FC81505A000
0064350D6000
1F942D0B4B00
00D4291ACB00
00562A168B00
7FD46A200000
00345A3FFF80
79EC52000000
1F18543FFF80
C070D4000000
7F80B43FFF80
0000A43FFF80
0000A8000B00
0001A8000B00
000168000B00
000148000000
000150000000
000350000000
ENDCHAR
STARTCHAR questiondown
ENCODING 191
SWIDTH 693 0
DWIDTH 22 0
BBX 20 27 1 0
BITMAP
07F800
3C0E00
61F180
9F3EC0
704360
2FFDA0
180690
07FA50
000950
000D50
001B50
3572D0
3506B0
3579A0
350760
357CC0
350180
357E00
350000
350000
000000
3F8000
000000
000000
3F8000
000000
3F8000
ENDCHAR
STARTCHAR Agrave
ENCODING 192
SWIDTH 936 0
DWIDTH 30 0
BBX 28 36 1 0
BITMAP
07000000
09C00000
0E700000
039C0000
00E78000
00390000
000E0000
00000000
00000000
00000000
002D4000
00752000
0054A000
00D6B000
00BAD000
00AA5000
01294800
01552800
0355AC00
02D6A400
02BA9400
04AE5200
05295A00
0D696B00
0B59A900
0AD0A500
12909580
16AF5680
35A05A80
2D606A40
295FA940
6A402560
5ABFD5A0
D68016A0
95801A90
AD000B50
ENDCHAR
STARTCHAR Aacute
ENCODING 193
SWIDTH 936 0
DWIDTH 30 0
BBX 28 36 1 0
BITMAP
00000E00
00003900
0000E700
00039C00
001C7000
0009C000
00070000
00000000
00000000
00000000
002D4000
00752000
0054A000
00D6B000
00BAD000
00AA5000
01294800
01552800
0355AC00
02D6A400
02BA9400
04AE5200
05295A00
0D696B00
0B59A900
0AD0A500
12909580
16AF5680
35A05A80
2D606A40
295FA940
6A402560
5ABFD5A0
D68016A0
95801A90
AD000B50
ENDCHAR
STARTCHAR Acircumflex
ENCODING 194
SWIDTH 936 0
DWIDTH 30 0
BBX 28 36 1 0
BITMAP
000D0000
000D0000
00158000
00168000
003AC000
002E4000
00294000
00696000
00000000
00000000
002D4000
00752000
0054A000
00D6B000
00BAD000
00AA5000
01294800
01552800
0355AC00
02D6A400
02BA9400
04AE5200
05295A00
0D696B00
0B59A900
0AD0A500
12909580
16AF5680
35A05A80
2D606A40
295FA940
6A402560
5ABFD5A0
D68016A0
95801A90
AD000B50
ENDCHAR
STARTCHAR Atilde
ENCODING 195
SWIDTH 936 0
DWIDTH 30 0
BBX 28 35 1 0
BITMAP
00FFCB00
03FFCA00
04001A00
05FFF200
05000400
0D3FF800
00000000
00000000
00000000
002D4000
00752000
0054A000
00D6B000
00BAD000
00AA5000
01294800
01552800
0355AC00
02D6A400
02BA9400
04AE5200
05295A00
0D696B00
0B59A900
0AD0A500
12909580
16AF5680
35A05A80
2D606A40
295FA940
6A402560
5ABFD5A0
D68016A0
95801A90
AD000B50
ENDCHAR
STARTCHAR Adieresis
ENCODING 196
SWIDTH 936 0
DWIDTH 30 0
BBX 28 32 1 0
BITMAP
0250AC00
0250AC00
0250AC00
00000000
00000000
00000000
002D4000
00752000
0054A000
00D6B000
00BAD000
00AA5000
01294800
01552800
0355AC00
02D6A400
02BA9400
04AE5200
05295A00
0D696B00
0B59A900
0AD0A500
12909580
16AF5680
35A05A80
2D606A40
295FA940
6A402560
5ABFD5A0
D68016A0
95801A90
AD000B50
ENDCHAR
STARTCHAR Aring
ENCODING 197
SWIDTH 936 0
DWIDTH 30 0
BBX 28 35 1 0
BITMAP
000F0000
00108000
002F4000
00314000
0031C000
002F4000
00168000
000F0000
00000000
002D4000
00752000
0054A000
00D6B000
00BAD000
00AA5000
01294800
01552800
0355AC00
02D6A400
02BA9400
04AE5200
05295A00
0D696B00
0B59A900
0AD0A500
12909580
16AF5680
35A05A80
2D606A40
295FA940
6A402560
5ABFD5A0
D68016A0
95801A90
AD000B50
ENDCHAR
STARTCHAR AE
ENCODING 198
SWIDTH 1198 0
DWIDTH 38 0
BBX 36 26 1 0
BITMAP
002D7FFFF0
0075200000
0054BFFFF0
00D2BFFFF0
00BAD00000
00AB5FFFF0
012D480000
0155280000
0355AC0000
02D6B40000
02BA97FFC0
04AE560000
05A95BFFC0
0D696BFFC0
0B59AD0000
0A50A5FFC0
1A90958000
16AF568000
35A05A8000
25606A4000
295FA97FF0
6A40257FF0
5ABFD5A000
568016BFF0
95801A9000
AD000B5FF0
ENDCHAR
STARTCHAR Ccedilla
ENCODING 199
SWIDTH 852 0
DWIDTH 27 0
BBX 26 38 1 -11
BITMAP
003FC000
00E07000
030F0C00
0679E600
09841900
123FCC80
24C036C0
2D9F9B00
5B606C00
52C03000
94801000
B5000000
AD000000
AD000000
AD000000
AD000000
B5000000
95800000
56C03000
5A606C00
693F9B00
24C03280
127FCCC0
19861900
0CF0E200
031F8C00
01C07800
003FC000
00090000
00390000
00410000
005F0000
00D00000
00D00000
00D00000
004F0000
00600000
003F0000
ENDCHAR
STARTCHAR Egrave
ENCODING 200
SWIDTH 706 0
DWIDTH 23 0
BBX 20 36 1 0
BITMAP
300000
8C0000
630000
18C000
063000
018800
006000
000000
000000
000000
D5FFF0
D50000
D5FFF0
D5FFF0
D50000
D5FFF0
D50000
D50000
D50000
D50000
D5FC00
D50000
D5FC00
D5FC00
D50000
D5FC00
D50000
D50000
D50000
D50000
D5FFF0
D5FFF0
D50000
D5FFF0
D50000
D5FFF0
ENDCHAR
STARTCHAR Eacute
ENCODING 201
SWIDTH 706 0
DWIDTH 23 0
BBX 21 36 1 0
BITMAP
0000E0
000390
000E78
0039C0
00E700
009C00
007000
000000
000000
000000
D5FFF0
D50000
D5FFF0
D5FFF0
D50000
D5FFF0
D50000
D50000
D50000
D50000
D5FC00
D50000
D5FC00
D5FC00
D50000
D5FC00
D50000
D50000
D50000
D50000
D5FFF0
D5FFF0
D50000
D5FFF0
D50000
D5FFF0
ENDCHAR
STARTCHAR Ecircumflex
ENCODING 202
SWIDTH 706 0
DWIDTH 23 0
BBX 20 36 1 0
BITMAP
00D000
00D800
00E800
012800
016400
035400
02D600
029A00
000000
000000
D5FFF0
D50000
D5FFF0
D5FFF0
D50000
D5FFF0
D50000
D50000
D50000
D50000
D5FC00
D50000
D5FC00
D5FC00
D50000
D5FC00
D50000
D50000
D50000
D50000
D5FFF0
D5FFF0
D50000
D5FFF0
D50000
D5FFF0
ENDCHAR
STARTCHAR Edieresis
ENCODING 203
SWIDTH 706 0
DWIDTH 23 0
BBX 20 32 1 0
BITMAP
150940
150940
150940
000000
000000
000000
D5FFF0
D50000
D5FFF0
D5FFF0
D50000
D5FFF0
D50000
D50000
D50000
D50000
D5FC00
D50000
D5FC00
D5FC00
D50000
D5FC00
D50000
D50000
D50000
D50000
D5FFF0
D5FFF0
D50000
D5FFF0
D50000
D5FFF0
ENDCHAR
STARTCHAR Igrave
ENCODING 204
SWIDTH 338 0
DWIDTH 11 0
BBX 14 36 -5 0
BITMAP
3000
8C00
6300
18C0
0630
0188
0060
0000
0000
0000
0354
0354
0354
0354
0354
0354
0354
0354
0354
0354
0354
0354
0354
0354
0354
0354
0354
0354
0354
0354
0354
0354
0354
0354
0354
0354
ENDCHAR
STARTCHAR Iacute
ENCODING 205
SWIDTH 338 0
DWIDTH 11 0
BBX 15 36 1 0
BITMAP
0038
00E4
038E
0E70
39C0
2700
1C00
0000
0000
0000
D500
D500
D500
D500
D500
D500
D500
D500
D500
D500
D500
D500
D500
D500
D500
D500
D500
D500
D500
D500
D500
D500
D500
D500
D500
D500
ENDCHAR
STARTCHAR Icircumflex
ENCODING 206
SWIDTH 338 0
DWIDTH 11 0
BBX 9 36 1 0
BITMAP
3400
3600
3A00
4B00
5D00
D500
9580
A680
0000
0000
D500
D500
D500
D500
D500
D500
D500
D500
D500
D500
D500
D500
D500
D500
D500
D500
D500
D500
D500
D500
D500
D500
D500
D500
D500
D500
ENDCHAR
STARTCHAR Idieresis
ENCODING 207
SWIDTH 338 0
DWIDTH 11 0
BBX 15 32 -2 0
BITMAP
A84A
A84A
A84A
0000
0000
0000
1AA0
1AA0
1AA0
1AA0
1AA0
1AA0
1AA0
1AA0
1AA0
1AA0
1AA0
1AA0
1AA0
1AA0
1AA0
1AA0
1AA0
1AA0
1AA0
1AA0
1AA0
1AA0
1AA0
1AA0
1AA0
1AA0
ENDCHAR
STARTCHAR Eth
ENCODING 208
SWIDTH 905 0
DWIDTH 29 0
BBX 27 26 1 0
BITMAP
7FFFC000
40007800
5FFF0C00
5FFFE600
50001B00
53FFCD80
52003680
52FF9AC0
52804B40
52802D40
FFF03560
00001520
FFF015A0
FFF015A0
000015A0
FFF03560
52802D40
52806B40
52FFDA40
52003680
53FFED80
53FE1900
5000F200
5FFFCC00
40003800
7FFFC000
ENDCHAR
STARTCHAR Ntilde
ENCODING 209
SWIDTH 877 0
DWIDTH 28 0
BBX 26 35 1 0
BITMAP
01FF9600
07FF9600
0C003400
0BFFE400
0A000800
1A7FF000
00000000
00000000
00000000
DAC02AC0
E9602AC0
E5A02AC0
D4B02AC0
D2D02AC0
EB482AC0
DD2C2AC0
D4B42AC0
D2D22AC0
D75A2AC0
D5692AC0
D5A5AAC0
D496AAC0
D55A6AC0
D5696AC0
D525AAC0
D514BAC0
D512D2C0
D50B4AC0
D50D2EC0
D504B5C0
D502D6C0
D5035AC0
D50169C0
D501A5C0
D500D6C0
ENDCHAR
STARTCHAR Ograve
ENCODING 210
SWIDTH 933 0
DWIDTH 30 0
BBX 28 37 1 -1
BITMAP
07000000
09C00000
1E700000
039C0000
00E78000
00390000
000E0000
00000000
00000000
003FC000
00E07000
030F0C00
0679E600
09841900
123FCC80
24C036C0
2D9F9B40
5B606D20
52C034A0
948012B0
B5000A90
AD000A50
AD000A50
AD000B50
AD000A50
B5000A90
958012B0
56C034A0
5A606D20
693F9B40
24C03240
127FC480
19861900
0CF0E200
031F8C00
01C07000
003FC000
ENDCHAR
STARTCHAR Oacute
ENCODING 211
SWIDTH 933 0
DWIDTH 30 0
BBX 28 37 1 -1
BITMAP
00000E00
00003900
0000E700
00031C00
001C7000
0009C000
00060000
00000000
00000000
003FC000
00E07000
030F0C00
0679E600
09841900
123FCC80
24C036C0
2D9F9B40
5B606D20
52C034A0
948012B0
B5000A90
AD000A50
AD000A50
AD000B50
AD000A50
B5000A90
958012B0
56C034A0
5A606D20
693F9B40
24C03240
127FC480
19861900
0CF0E200
031F8C00
01C07000
003FC000
ENDCHAR
STARTCHAR Ocircumflex
ENCODING 212
SWIDTH 933 0
DWIDTH 30 0
BBX 28 37 1 -1
BITMAP
00090000
000D0000
00158000
00168000
003A8000
002E4000
00294000
00496000
00000000
003FC000
00E07000
030F0C00
0679E600
09841900
123FCC80
24C036C0
2D9F9B40
5B606D20
52C034A0
948012B0
B5000A90
AD000A50
AD000A50
AD000B50
AD000A50
B5000A90
958012B0
56C034A0
5A606D20
693F9B40
24C03240
127FC480
19861900
0CF0E200
031F8C00
01C07000
003FC000
ENDCHAR
STARTCHAR Otilde
ENCODING 213
SWIDTH 933 0
DWIDTH 30 0
BBX 28 36 1 -1
BITMAP
00FFCB00
03FFCA00
04001A00
05FFF200
0D000400
0D3FF800
00000000
00000000
003FC000
00E07000
030F0C00
0679E600
09841900
123FCC80
24C036C0
2D9F9B40
5B606D20
52C034A0
948012B0
B5000A90
AD000A50
AD000A50
AD000B50
AD000A50
B5000A90
958012B0
56C034A0
5A606D20
693F9B40
24C03240
127FC480
19861900
0CF0E200
031F8C00
01C07000
003FC000
ENDCHAR
STARTCHAR Odieresis
ENCODING 214
SWIDTH 933 0
DWIDTH 30 0
BBX 28 33 1 -1
BITMAP
0250AC00
0250AC00
0250AC00
00000000
00000000
003FC000
00E07000
030F0C00
0679E600
09841900
123FCC80
24C036C0
2D9F9B40
5B606D20
52C034A0
948012B0
B5000A90
AD000A50
AD000A50
AD000B50
AD000A50
B5000A90
958012B0
56C034A0
5A606D20
693F9B40
24C03240
127FC480
19861900
0CF0E200
031F8C00
01C07000
003FC000
ENDCHAR
STARTCHAR multiply
ENCODING 215
SWIDTH 790 0
DWIDTH 25 0
BBX 24 23 1 0
BITMAP
B6825B
D246D2
4B65B4
2D292C
34BB48
12D2D0
1B74B0
096D20
054B60
06D240
02B680
012D80
034980
02DAC0
049640
0DA560
0969B0
1A5E90
369258
25B968
696DA4
5B4496
B6C2DB
ENDCHAR
STARTCHAR Oslash
ENCODING 216
SWIDTH 938 0
DWIDTH 30 0
BBX 28 35 1 -5
BITMAP
00001800
00001600
00003580
003FCD00
00E07300
031F0E00
0479E600
09841900
123FCC80
24C036C0
699F9B40
5B606D20
56C034A0
D48012B0
B5000A90
AD000AD0
AD000A50
A9000A50
AD000AD0
B5000A90
958012B0
56C034A0
5A606D20
693F9B40
24C032C0
127FCC80
19861900
0CF0F200
031F8C00
0DC07000
0B3FC000
1AC00000
16800000
05800000
01000000
ENDCHAR
STARTCHAR Ugrave
ENCODING 217
SWIDTH 905 0
DWIDTH 29 0
BBX 27 37 1 -1
BITMAP
06000000
11800000
0C600000
03180000
00C60000
00310000
000C0000
00000000
00000000
00000000
95001560
95001560
95001560
95001560
95001560
95001560
95001560
95001560
95001560
95001560
95001560
95001560
95001560
95001560
95001560
95001560
D5802540
56802940
5A60CA40
693F92C0
24C06480
367FCD00
1B0E3300
0CE0E600
073F1800
01C07000
007F8000
ENDCHAR
STARTCHAR Uacute
ENCODING 218
SWIDTH 905 0
DWIDTH 29 0
BBX 27 37 1 -1
BITMAP
00000C00
00007200
0001C700
00073800
001CE000
00138000
00060000
00000000
00000000
00000000
95001560
95001560
95001560
95001560
95001560
95001560
95001560
95001560
95001560
95001560
95001560
95001560
95001560
95001560
95001560
95001560
D5802540
56802940
5A60CA40
693F92C0
24C06480
367FCD00
1B0E3300
0CE0E600
073F1800
01C07000
007F8000
ENDCHAR
STARTCHAR Ucircumflex
ENCODING 219
SWIDTH 905 0
DWIDTH 29 0
BBX 27 37 1 -1
BITMAP
000A0000
00190000
001D0000
00358000
002E8000
002A8000
004AC000
00534000
00000000
00000000
95001560
95001560
95001560
95001560
95001560
95001560
95001560
95001560
95001560
95001560
95001560
95001560
95001560
95001560
95001560
95001560
D5802540
56802940
5A60CA40
693F92C0
24C06480
367FCD00
1B0E3300
0CE0E600
073F1800
01C07000
007F8000
ENDCHAR
STARTCHAR Udieresis
ENCODING 220
SWIDTH 905 0
DWIDTH 29 0
BBX 27 33 1 -1
BITMAP
02A1A800
02A1A800
02A1A800
00000000
00000000
00000000
95001560
95001560
95001560
95001560
95001560
95001560
95001560
95001560
95001560
95001560
95001560
95001560
95001560
95001560
95001560
95001560
D5802540
56802940
5A60CA40
693F92C0
24C06480
367FCD00
1B0E3300
0CE0E600
073F1800
01C07000
007F8000
ENDCHAR
STARTCHAR Yacute
ENCODING 221
SWIDTH 789 0
DWIDTH 25 0
BBX 24 36 1 0
BITMAP
000030
0000C4
000318
000C60
003180
004600
001800
000000
000000
000000
AB00AB
B5016A
558156
5A82D4
2AC2AC
2D44A8
156548
14A950
0AAAD0
0A5AA0
0D55A0
053540
06AB40
02EA80
025680
015500
01A500
00AB00
00AB00
00AB00
00AB00
00AB00
00AB00
00AB00
00AB00
00AB00
ENDCHAR
STARTCHAR Thorn
ENCODING 222
SWIDTH 798 0
DWIDTH 26 0
BBX 23 29 1 -2
BITMAP
D50000
D50000
D50000
D5FF00
D501C0
D5FE30
D50398
D5F848
D5FF24
D50196
D5FE5A
D5036A
D5012A
D500AA
D500AA
D5012A
D5036A
D57E5A
D50096
D57F24
D57848
D50398
D57E30
D501C0
D57F00
D50000
D50000
D50000
D50000
ENDCHAR
STARTCHAR germandbls
ENCODING 223
SWIDTH 826 0
DWIDTH 26 0
BBX 24 29 1 -2
BITMAP
01FFC0
060070
18FF18
3381EC
2C3E36
49FF9A
52004A
D4FF29
9500AD
9500AD
957FA9
95006A
9501D2
957FDE
95006B
957FB5
9500D5
950055
9500D5
957FB5
95006D
957FDB
957E32
9500E4
957F98
950070
957FC0
950000
950000
ENDCHAR
STARTCHAR agrave
ENCODING 224
SWIDTH 832 0
DWIDTH 27 0
BBX 24 33 1 -1
BITMAP
1C0000
270000
79C000
0E7000
039E00
00E400
003800
000000
000000
00FF00
0380C0
0C7E30
19C398
36386C
2CFF36
4900DA
527E6B
948129
B500A5
AD0095
A900D5
AD00D5
A500D5
B580D5
D6C1D5
5A7ED5
6981D5
24FFD5
1300D5
0CFFD5
0600D5
01F7D5
003800
ENDCHAR
STARTCHAR aacute
ENCODING 225
SWIDTH 832 0
DWIDTH 27 0
BBX 24 33 1 -1
BITMAP
000038
0000E4
00039C
000C70
0071C0
002600
001800
000000
000000
00FF00
0380C0
0C7E30
19C398
36386C
2CFF36
4900DA
527E6B
948129
B500A5
AD0095
A900D5
AD00D5
A500D5
B580D5
D6C1D5
5A7ED5
6981D5
24FFD5
1300D5
0CFFD5
0600D5
01F7D5
003800
ENDCHAR
STARTCHAR acircumflex
ENCODING 226
SWIDTH 832 0
DWIDTH 27 0
BBX 24 34 1 -1
BITMAP
002400
003400
005600
005A00
00EA00
00B900
00A500
016580
000000
000000
00FF00
0380C0
0C7E30
19C398
36386C
2CFF36
4900DA
527E6B
948129
B500A5
AD0095
A900D5
AD00D5
A500D5
B580D5
D6C1D5
5A7ED5
6981D5
24FFD5
1300D5
0CFFD5
0600D5
01F7D5
003800
ENDCHAR
STARTCHAR atilde
ENCODING 227
SWIDTH 832 0
DWIDTH 27 0
BBX 24 32 1 -1
BITMAP
03FF28
0FFF28
100068
17FFC8
340010
34FFE0
000000
000000
00FF00
0380C0
0C7E30
19C398
36386C
2CFF36
4900DA
527E6B
948129
B500A5
AD0095
A900D5
AD00D5
A500D5
B580D5
D6C1D5
5A7ED5
6981D5
24FFD5
1300D5
0CFFD5
0600D5
01F7D5
003800
ENDCHAR
STARTCHAR adieresis
ENCODING 228
SWIDTH 832 0
DWIDTH 27 0
BBX 24 30 1 -1
BITMAP
0942B0
0942B0
0942B0
000000
000000
000000
00FF00
0380C0
0C7E30
19C398
36386C
2CFF36
4900DA
527E6B
948129
B500A5
AD0095
A900D5
AD00D5
A500D5
B580D5
D6C1D5
5A7ED5
6981D5
24FFD5
1300D5
0CFFD5
0600D5
01F7D5
003800
ENDCHAR
STARTCHAR aring
ENCODING 229
SWIDTH 832 0
DWIDTH 27 0
BBX 24 34 1 -1
BITMAP
003C00
004200
00BD00
00A300
00A300
00BD00
004B00
003E00
000000
000000
00FF00
0380C0
0C7E30
19C398
36386C
2CFF36
4900DA
527E6B
948129
B500A5
AD0095
A900D5
AD00D5
A500D5
B580D5
D6C1D5
5A7ED5
6981D5
24FFD5
1300D5
0CFFD5
0600D5
01F7D5
003800
ENDCHAR
STARTCHAR ae
ENCODING 230
SWIDTH 1166 0
DWIDTH 37 0
BBX 35 24 1 -1
BITMAP
00FF15FFE0
0380D5FFE0
0C7E350000
19C39DFFE0
36386D0000
2CFF37FFE0
4900DB0000
527E6B0000
9481290000
B500A5FFC0
AD00950000
A900D5FFC0
AD00D50000
A500D5FFC0
B580D5FFC0
D6C1D50000
5A7ED50000
6981D5FFE0
24FFD5FFE0
1300D50000
0CFFD5FFE0
0600D50000
01F7D5FFE0
0038000000
ENDCHAR
STARTCHAR ccedilla
ENCODING 231
SWIDTH 736 0
DWIDTH 24 0
BBX 22 35 1 -11
BITMAP
001800
01FF80
070060
0CFF10
1B80C8
367E24
2DC190
4B3CC0
526740
948180
B50000
AD0000
A90000
AD0000
A50000
B58000
D6C180
5A7E40
6980D0
24FF30
13186C
19C398
067E30
0380C0
00FF00
001400
00F400
018400
013C00
014000
014000
016000
013C00
018000
007C00
ENDCHAR
STARTCHAR egrave
ENCODING 232
SWIDTH 666 0
DWIDTH 21 0
BBX 20 32 0 0
BITMAP
380000
4E0000
F38000
1CE000
073800
01C800
007000
000000
000000
6AFFF0
6AFFF0
6A8000
6AFFF0
6A8000
6AFFF0
6A8000
6A8000
6A8000
6AFFE0
6A8000
6AFFE0
6A8000
6AFFE0
6AFFE0
6A8000
6A8000
6AFFF0
6AFFF0
6A8000
6AFFF0
6A8000
6AFFF0
ENDCHAR
STARTCHAR eacute
ENCODING 233
SWIDTH 666 0
DWIDTH 21 0
BBX 20 32 1 0
BITMAP
0000C0
000310
000C60
003180
01C600
009800
006000
000000
000000
D5FFE0
D5FFE0
D50000
D5FFE0
D50000
D5FFE0
D50000
D50000
D50000
D5FFC0
D50000
D5FFC0
D50000
D5FFC0
D5FFC0
D50000
D50000
D5FFE0
D5FFE0
D50000
D5FFE0
D50000
D5FFE0
ENDCHAR
STARTCHAR ecircumflex
ENCODING 234
SWIDTH 666 0
DWIDTH 21 0
BBX 19 33 1 0
BITMAP
00B000
01D000
015800
014800
02A800
02AC00
02B400
059600
000000
000000
D5FFE0
D5FFE0
D50000
D5FFE0
D50000
D5FFE0
D50000
D50000
D50000
D5FFC0
D50000
D5FFC0
D50000
D5FFC0
D5FFC0
D50000
D50000
D5FFE0
D5FFE0
D50000
D5FFE0
D50000
D5FFE0
ENDCHAR
STARTCHAR edieresis
ENCODING 235
SWIDTH 666 0
DWIDTH 21 0
BBX 19 29 1 0
BITMAP
2D0A80
2D0A80
2D0A80
000000
000000
000000
D5FFE0
D5FFE0
D50000
D5FFE0
D50000
D5FFE0
D50000
D50000
D50000
D5FFC0
D50000
D5FFC0
D50000
D5FFC0
D5FFC0
D50000
D50000
D5FFE0
D5FFE0
D50000
D5FFE0
D50000
D5FFE0
ENDCHAR
STARTCHAR igrave
ENCODING 236
SWIDTH 337 0
DWIDTH 11 0
BBX 14 32 -5 0
BITMAP
3000
8C00
6300
18C0
0630
0188
0060
0000
0000
0354
0354
0354
0354
0354
0354
0354
0354
0354
0354
0354
0354
0354
0354
0354
0354
0354
0354
0354
0354
0354
0354
0354
ENDCHAR
STARTCHAR iacute
ENCODING 237
SWIDTH 337 0
DWIDTH 11 0
BBX 15 32 1 0
BITMAP
0038
00E4
038E
0E70
39C0
2700
1C00
0000
0000
D500
D500
D500
D500
D500
D500
D500
D500
D500
D500
D500
D500
D500
D500
D500
D500
D500
D500
D500
D500
D500
D500
D500
ENDCHAR
STARTCHAR icircumflex
ENCODING 238
SWIDTH 337 0
DWIDTH 11 0
BBX 9 33 1 0
BITMAP
3400
3600
3A00
4B00
5D00
D500
9580
A680
0000
0000
D500
D500
D500
D500
D500
D500
D500
D500
D500
D500
D500
D500
D500
D500
D500
D500
D500
D500
D500
D500
D500
D500
D500
ENDCHAR
STARTCHAR idieresis
ENCODING 239
SWIDTH 337 0
DWIDTH 11 0
BBX 15 29 -2 0
BITMAP
A84A
A84A
A84A
0000
0000
0000
1AA0
1AA0
1AA0
1AA0
1AA0
1AA0
1AA0
1AA0
1AA0
1AA0
1AA0
1AA0
1AA0
1AA0
1AA0
1AA0
1AA0
1AA0
1AA0
1AA0
1AA0
1AA0
1AA0
ENDCHAR
STARTCHAR eth
ENCODING 240
SWIDTH 783 0
DWIDTH 25 0
BBX 23 28 1 -1
BITMAP
01FE00
0F0380
18F860
678730
1C10D8
0BFE68
0601A4
01FC94
000256
000152
00015A
07FD5A
1C015A
33FD5A
66015A
59FD5A
97015A
A4FD5A
A9015A
A90356
A5FED4
B601B4
DBFF6C
4C78C8
278790
18FC60
0E01C0
01FE00
ENDCHAR
STARTCHAR ntilde
ENCODING 241
SWIDTH 787 0
DWIDTH 25 0
BBX 23 31 1 0
BITMAP
03FF28
1FFF28
100048
27FF98
2C0030
28FFE0
000000
000000
D2C052
CB4052
ED2052
F5A052
D69052
DA5852
E96852
D52C52
D4B452
D2D252
D74A52
D56952
D5A5D2
D496B2
D45AD2
D44B52
D42D2A
D434B2
D41292
D41A5A
D4096A
D405A6
D406B6
ENDCHAR
STARTCHAR ograve
ENCODING 242
SWIDTH 833 0
DWIDTH 27 0
BBX 25 33 1 -1
BITMAP
0C000000
23000000
38C00000
06300000
018E0000
00640000
00180000
00000000
001C0000
01FF8000
07006000
0CFF1000
1B80C800
367E2400
2DC19200
4B3CCA00
52676900
9481A500
B5009500
AD005580
A9005580
AD005580
A500D500
B580B500
D6C12D00
5A7E6B00
6980DA00
24FF3600
13186C00
19C39800
067E3000
0380C000
00FF0000
ENDCHAR
STARTCHAR oacute
ENCODING 243
SWIDTH 833 0
DWIDTH 27 0
BBX 25 33 1 -1
BITMAP
00003800
0000E400
00039E00
000E7000
0039C000
00270000
001C0000
00000000
001C0000
01FF8000
07006000
0CFF1000
1B80C800
367E2400
2DC19200
4B3CCA00
52676900
9481A500
B5009500
AD005580
A9005580
AD005580
A500D500
B580B500
D6C12D00
5A7E6B00
6980DA00
24FF3600
13186C00
19C39800
067E3000
0380C000
00FF0000
ENDCHAR
STARTCHAR ocircumflex
ENCODING 244
SWIDTH 833 0
DWIDTH 27 0
BBX 25 34 1 -1
BITMAP
00340000
00360000
003A0000
004A0000
00590000
00DD0000
00B58000
01A68000
00000000
001C0000
01FF8000
07006000
0CFF1000
1B80C800
367E2400
2DC19200
4B3CCA00
52676900
9481A500
B5009500
AD005580
A9005580
AD005580
A500D500
B580B500
D6C12D00
5A7E6B00
6980DA00
24FF3600
13186C00
19C39800
067E3000
0380C000
00FF0000
ENDCHAR
STARTCHAR otilde
ENCODING 245
SWIDTH 833 0
DWIDTH 27 0
BBX 25 32 1 -1
BITMAP
03FF3400
0FFF2400
18006C00
13FFC800
14001800
14FFE000
00000000
001C0000
01FF8000
07006000
0CFF1000
1B80C800
367E2400
2DC19200
4B3CCA00
52676900
9481A500
B5009500
AD005580
A9005580
AD005580
A500D500
B580B500
D6C12D00
5A7E6B00
6980DA00
24FF3600
13186C00
19C39800
067E3000
0380C000
00FF0000
ENDCHAR
STARTCHAR odieresis
ENCODING 246
SWIDTH 833 0
DWIDTH 27 0
BBX 25 30 1 -1
BITMAP
0542D000
0542D000
0542D000
00000000
00000000
001C0000
01FF8000
07006000
0CFF1000
1B80C800
367E2400
2DC19200
4B3CCA00
52676900
9481A500
B5009500
AD005580
A9005580
AD005580
A500D500
B580B500
D6C12D00
5A7E6B00
6980DA00
24FF3600
13186C00
19C39800
067E3000
0380C000
00FF0000
ENDCHAR
STARTCHAR divide
ENCODING 247
SWIDTH 260 0
DWIDTH 8 0
BBX 10 19 -1 1
BITMAP
3500
3500
3500
3500
3500
3500
0000
0000
FFC0
0000
FFC0
0000
0000
3500
3500
3500
3500
3500
3500
ENDCHAR
STARTCHAR oslash
ENCODING 248
SWIDTH 832 0
DWIDTH 27 0
BBX 25 29 1 -3
BITMAP
00004000
00005000
003C9400
01FFA400
07006800
0CFF1000
1B80C800
367E2400
2DC19200
4B3CDA00
52676900
9481A500
B5009500
AD005580
A9005580
A9005580
A500D500
B580B500
D6C12D00
5A7E6B00
6980DA00
24FF3600
13186C00
19C39800
167E3000
1380C000
34FF0000
0D000000
03000000
ENDCHAR
STARTCHAR ugrave
ENCODING 249
SWIDTH 795 0
DWIDTH 25 0
BBX 23 33 1 -1
BITMAP
1C0000
270000
79C000
0E7000
039C00
00E400
003800
000000
000000
95016A
95016A
95016A
95016A
95016A
95016A
95016A
95016A
95016A
95016A
95016A
95016A
95016A
95016A
D5814A
568352
5A7ED6
4901B4
2CFF6C
3610D8
19C3B0
0C7C60
0381C0
00FF00
ENDCHAR
STARTCHAR uacute
ENCODING 250
SWIDTH 795 0
DWIDTH 25 0
BBX 23 33 1 -1
BITMAP
000030
0000C4
000318
000C60
003180
004600
001800
000000
000000
95016A
95016A
95016A
95016A
95016A
95016A
95016A
95016A
95016A
95016A
95016A
95016A
95016A
95016A
D5814A
568352
5A7ED6
4901B4
2CFF6C
3610D8
19C3B0
0C7C60
0381C0
00FF00
ENDCHAR
STARTCHAR ucircumflex
ENCODING 251
SWIDTH 795 0
DWIDTH 25 0
BBX 23 34 1 -1
BITMAP
002C00
007400
005400
005200
00AA00
00AB00
01AD00
016580
000000
000000
95016A
95016A
95016A
95016A
95016A
95016A
95016A
95016A
95016A
95016A
95016A
95016A
95016A
95016A
D5814A
568352
5A7ED6
4901B4
2CFF6C
3610D8
19C3B0
0C7C60
0381C0
00FF00
ENDCHAR
STARTCHAR udieresis
ENCODING 252
SWIDTH 795 0
DWIDTH 25 0
BBX 23 30 1 -1
BITMAP
0A42A0
0A42A0
0A42A0
000000
000000
000000
95016A
95016A
95016A
95016A
95016A
95016A
95016A
95016A
95016A
95016A
95016A
95016A
95016A
95016A
D5814A
568352
5A7ED6
4901B4
2CFF6C
3610D8
19C3B0
0C7C60
0381C0
00FF00
ENDCHAR
STARTCHAR yacute
ENCODING 253
SWIDTH 733 0
DWIDTH 23 0
BBX 23 32 0 0
BITMAP
000030
0000C4
000318
000C60
007180
002600
001800
000000
000000
D5016A
528156
2AC2D4
2942AC
1525A8
16A558
0A9950
0B4A90
0572A0
05D520
02B540
02AB40
016A80
015680
00D500
00A500
00A500
00A500
00A500
00A500
00A500
00A500
00A500
ENDCHAR
STARTCHAR thorn
ENCODING 254
SWIDTH 833 0
DWIDTH 27 0
BBX 25 29 1 -3
BITMAP
D5000000
D5000000
D5000000
D5000000
D5000000
D5000000
D5000000
D57FE000
D5003800
D57F8C00
D5007600
D57F1B00
D57FED00
D5003500
D57FD580
D5005580
D500D580
D57FB500
D5006D00
D57FDB00
D5003200
D57FE400
D5001800
D57FF000
D5000000
D5000000
D5000000
D5000000
D5000000
ENDCHAR
STARTCHAR ydieresis
ENCODING 255
SWIDTH 733 0
DWIDTH 23 0
BBX 23 29 0 0
BITMAP
0B42A0
0B42A0
0B42A0
000000
000000
000000
D5016A
528156
2AC2D4
2942AC
1525A8
16A558
0A9950
0B4A90
0572A0
05D520
02B540
02AB40
016A80
015680
00D500
00A500
00A500
00A500
00A500
00A500
00A500
00A500
00A500
ENDCHAR
STARTCHAR Amacron
ENCODING 256
SWIDTH 936 0
DWIDTH 30 0
BBX 28 26 1 0
BITMAP
002D4000
00752000
0054A000
00D6B000
00BAD000
00AA5000
01294800
01552800
0355AC00
02D6A400
02BA9400
04AE5200
05295A00
0D696B00
0B59A900
0AD0A500
12909580
16AF5680
35A05A80
2D606A40
295FA940
6A402560
5ABFD5A0
D68016A0
95801A90
AD000B50
ENDCHAR
STARTCHAR amacron
ENCODING 257
SWIDTH 832 0
DWIDTH 27 0
BBX 24 24 1 -1
BITMAP
00FF00
0380C0
0C7E30
19C398
36386C
2CFF36
4900DA
527E6B
948129
B500A5
AD0095
A900D5
AD00D5
A500D5
B580D5
D6C1D5
5A7ED5
6981D5
24FFD5
1300D5
0CFFD5
0600D5
01F7D5
003800
ENDCHAR
STARTCHAR Abreve
ENCODING 258
SWIDTH 936 0
DWIDTH 30 0
BBX 28 33 1 0
BITMAP
0050A000
002F4000
0030C000
000F0000
00000000
00000000
00000000
002D4000
00752000
0054A000
00D6B000
00BAD000
00AA5000
01294800
01552800
0355AC00
02D6A400
02BA9400
04AE5200
05295A00
0D696B00
0B59A900
0AD0A500
12909580
16AF5680
35A05A80
2D606A40
295FA940
6A402560
5ABFD5A0
D68016A0
95801A90
AD000B50
ENDCHAR
STARTCHAR abreve
ENCODING 259
SWIDTH 832 0
DWIDTH 27 0
BBX 24 30 1 -1
BITMAP
014280
00BD00
00C300
003C00
000000
000000
00FF00
0380C0
0C7E30
19C398
36386C
2CFF36
4900DA
527E6B
948129
B500A5
AD0095
A900D5
AD00D5
A500D5
B580D5
D6C1D5
5A7ED5
6981D5
24FFD5
1300D5
0CFFD5
0600D5
01F7D5
003800
ENDCHAR
STARTCHAR Aogonek
ENCODING 260
SWIDTH 937 0
DWIDTH 30 0
BBX 29 36 1 -10
BITMAP
002D6000
0075A000
0056A000
005A9000
00AA5000
00A95800
01AD6800
0175A800
015CA400
02529400
0296D600
06B75A00
05AD4A00
05292900
0D48AD00
0B50B580
1AD0D680
12BF5280
14A0CAC0
35202B40
2D5FED60
2B403520
4AFFD4A0
528012B0
D4800AD0
B5000B58
001C0000
00600000
004C0000
00580000
00D00000
00D40000
00D40000
00D40000
00D40000
00D40000
ENDCHAR
STARTCHAR aogonek
ENCODING 261
SWIDTH 832 0
DWIDTH 27 0
BBX 24 33 1 -10
BITMAP
00FF00
0380C0
0C7E30
19C398
36386C
2CFF36
4900DA
527E6B
948129
B500A5
AD0095
A900D5
AD00D5
A500D5
B580D5
D6C1D5
5A7ED5
6981D5
24FFD5
1300D5
0CFFD5
0600D5
01F7D5
007800
018000
013000
036000
034000
035000
035000
035000
035000
035000
ENDCHAR
STARTCHAR Cacute
ENCODING 262
SWIDTH 852 0
DWIDTH 27 0
BBX 26 37 1 -1
BITMAP
00000E00
00003900
0000E700
00031C00
001C7000
0009C000
00060000
00000000
00000000
003FC000
00E07000
030F0C00
0679E600
09841900
123FCC80
24C036C0
2D9F9B00
5B606C00
52C03000
94801000
B5000000
AD000000
AD000000
AD000000
AD000000
B5000000
95800000
56C03000
5A606C00
693F9B00
24C03280
127FCCC0
19861900
0CF0E200
031F8C00
01C07800
003FC000
ENDCHAR
STARTCHAR cacute
ENCODING 263
SWIDTH 736 0
DWIDTH 24 0
BBX 23 33 1 -1
BITMAP
000038
0000E4
00039E
000E70
0039C0
002700
001C00
000000
001800
01FF80
070060
0CFF10
1B80C8
367E24
2DC190
4B3CC0
526740
948180
B50000
AD0000
A90000
AD0000
A50000
B58000
D6C180
5A7E40
6980D0
24FF30
13186C
19C398
067E30
0380C0
00FF00
ENDCHAR
STARTCHAR Cdotaccent
ENCODING 266
SWIDTH 852 0
DWIDTH 27 0
BBX 26 35 1 -1
BITMAP
001F8000
00000000
001F8000
001F8000
00000000
001F8000
00000000
003FC000
00E07000
030F0C00
0679E600
09841900
123FCC80
24C036C0
2D9F9B00
5B606C00
52C03000
94801000
B5000000
AD000000
AD000000
AD000000
AD000000
B5000000
95800000
56C03000
5A606C00
693F9B00
24C03280
127FCCC0
19861900
0CF0E200
031F8C00
01C07800
003FC000
ENDCHAR
STARTCHAR cdotaccent
ENCODING 267
SWIDTH 736 0
DWIDTH 24 0
BBX 22 32 1 -1
BITMAP
007E00
000000
007E00
007E00
000000
007E00
000000
001800
01FF80
070060
0CFF10
1B80C8
367E24
2DC190
4B3CC0
526740
948180
B50000
AD0000
A90000
AD0000
A50000
B58000
D6C180
5A7E40
6980D0
24FF30
13186C
19C398
067E30
0380C0
00FF00
ENDCHAR
STARTCHAR Ccaron
ENCODING 268
SWIDTH 852 0
DWIDTH 27 0
BBX 26 38 1 -1
BITMAP
00496000
00294000
002F4000
003AC000
00168000
00158000
000D0000
000D0000
00000000
00000000
003FC000
00E07000
030F0C00
0679E600
09841900
123FCC80
24C036C0
2D9F9B00
5B606C00
52C03000
94801000
B5000000
AD000000
AD000000
AD000000
AD000000
B5000000
95800000
56C03000
5A606C00
693F9B00
24C03280
127FCCC0
19861900
0CF0E200
031F8C00
01C07800
003FC000
ENDCHAR
STARTCHAR ccaron
ENCODING 269
SWIDTH 736 0
DWIDTH 24 0
BBX 22 34 1 -1
BITMAP
01A680
00B580
009500
005900
004A00
007A00
003600
003400
000000
001800
01FF80
070060
0CFF10
1B80C8
367E24
2DC190
4B3CC0
526740
948180
B50000
AD0000
A90000
AD0000
A50000
B58000
D6C180
5A7E40
6980D0
24FF30
13186C
19C398
067E30
0380C0
00FF00
ENDCHAR
STARTCHAR Dcaron
ENCODING 270
SWIDTH 886 0
DWIDTH 28 0
BBX 26 37 1 0
BITMAP
00514000
005A4000
006A8000
002E8000
00258000
00150000
00190000
001A0000
00000000
00000000
00000000
FFFF8000
C0007000
DFFF1800
DFFFE600
D0003200
D7FFC900
D4006580
D5FF9680
D500DAC0
D5006B40
D5002940
D5002D40
D5002540
D5002540
D5002D40
D5002940
D5006B40
D500DAC0
D5FF9680
D4002580
D7FFC900
D7FE1300
D000E600
DFFF8C00
C0007000
FFFFC000
ENDCHAR
STARTCHAR dcaron
ENCODING 271
SWIDTH 1084 0
DWIDTH 35 0
BBX 33 24 1 0
BITMAP
0000001580
FFFC001580
FFFFC01580
C000701580
DFFF981580
D000EC0580
D7FF360580
D401DA1D00
D5FE6B0300
D5032D1E00
D500B50000
D500D58000
D500558000
D500D58000
D500B50000
D501A50000
D5FF690000
D400CB0000
D7FF920000
D7FC640000
D003CC0000
DFFE300000
C000E00000
FFFF800000
ENDCHAR
STARTCHAR Dcroat
ENCODING 272
SWIDTH 888 0
DWIDTH 28 0
BBX 29 26 -2 0
BITMAP
1FFFF800
18000E00
1BFFE300
1BFFFCC0
1A000640
1AFFF920
1A800CB0
1ABFF2D0
1AA01B58
1AA00D68
FAAF0528
1AA005A8
FAAF04A8
FAAF04A8
1AA005A8
FAAF0528
1AA00D68
1AA01B58
1ABFF2D0
1A8004B0
1AFFF920
1AFFC360
1A001CC0
1BFFF180
18000E00
1FFFF800
ENDCHAR
STARTCHAR dcroat
ENCODING 273
SWIDTH 833 0
DWIDTH 27 0
BBX 28 23 -2 0
BITMAP
1FFF8000
1FFFF800
18000E00
1BFFF300
1A001D80
1AFFE6C0
1A803B40
1ABFC960
1AA065A0
1AA016A0
FAAF12B0
1AA01AB0
FAAF1AB0
1AA012A0
1AA034A0
1ABFED20
1A801960
1AFFF240
1AFF8C80
1A007980
1BFFC600
18001C00
1FFFF000
ENDCHAR
STARTCHAR Emacron
ENCODING 274
SWIDTH 706 0
DWIDTH 23 0
BBX 20 26 1 0
BITMAP
D5FFF0
D50000
D5FFF0
D5FFF0
D50000
D5FFF0
D50000
D50000
D50000
D50000
D5FC00
D50000
D5FC00
D5FC00
D50000
D5FC00
D50000
D50000
D50000
D50000
D5FFF0
D5FFF0
D50000
D5FFF0
D50000
D5FFF0
ENDCHAR
STARTCHAR emacron
ENCODING 275
SWIDTH 666 0
DWIDTH 21 0
BBX 19 23 1 0
BITMAP
D5FFE0
D5FFE0
D50000
D5FFE0
D50000
D5FFE0
D50000
D50000
D50000
D5FFC0
D50000
D5FFC0
D50000
D5FFC0
D5FFC0
D50000
D50000
D5FFE0
D5FFE0
D50000
D5FFE0
D50000
D5FFE0
ENDCHAR
STARTCHAR Ebreve
ENCODING 276
SWIDTH 706 0
DWIDTH 23 0
BBX 20 33 1 0
BITMAP
030A00
02FA00
010400
00F800
000000
000000
000000
D5FFF0
D50000
D5FFF0
D5FFF0
D50000
D5FFF0
D50000
D50000
D50000
D50000
D5FC00
D50000
D5FC00
D5FC00
D50000
D5FC00
D50000
D50000
D50000
D50000
D5FFF0
D5FFF0
D50000
D5FFF0
D50000
D5FFF0
ENDCHAR
STARTCHAR ebreve
ENCODING 277
SWIDTH 666 0
DWIDTH 21 0
BBX 19 29 1 0
BITMAP
050E00
04F400
030800
00F000
000000
000000
D5FFE0
D5FFE0
D50000
D5FFE0
D50000
D5FFE0
D50000
D50000
D50000
D5FFC0
D50000
D5FFC0
D50000
D5FFC0
D5FFC0
D50000
D50000
D5FFE0
D5FFE0
D50000
D5FFE0
D50000
D5FFE0
ENDCHAR
STARTCHAR Edotaccent
ENCODING 278
SWIDTH 706 0
DWIDTH 23 0
BBX 20 34 1 0
BITMAP
00F800
000000
00F800
000000
00F800
00F800
000000
000000
D5FFF0
D50000
D5FFF0
D5FFF0
D50000
D5FFF0
D50000
D50000
D50000
D50000
D5FC00
D50000
D5FC00
D5FC00
D50000
D5FC00
D50000
D50000
D50000
D50000
D5FFF0
D5FFF0
D50000
D5FFF0
D50000
D5FFF0
ENDCHAR
STARTCHAR edotaccent
ENCODING 279
SWIDTH 666 0
DWIDTH 21 0
BBX 19 31 1 0
BITMAP
01F800
000000
01F800
000000
01F800
01F800
000000
000000
D5FFE0
D5FFE0
D50000
D5FFE0
D50000
D5FFE0
D50000
D50000
D50000
D5FFC0
D50000
D5FFC0
D50000
D5FFC0
D5FFC0
D50000
D50000
D5FFE0
D5FFE0
D50000
D5FFE0
D50000
D5FFE0
ENDCHAR
STARTCHAR Eogonek
ENCODING 280
SWIDTH 706 0
DWIDTH 23 0
BBX 20 35 1 -9
BITMAP
D5FFF0
D50000
D5FFF0
D5FFF0
D50000
D5FFF0
D50000
D50000
D50000
D50000
D5FC00
D50000
D5FC00
D5FC00
D50000
D5FC00
D50000
D50000
D50000
D50000
D5FFF0
D5FFF0
D50000
D5FFF0
D50000
D5FFF0
000080
000130
000160
000140
000150
000150
000150
000150
000150
ENDCHAR
STARTCHAR eogonek
ENCODING 281
SWIDTH 666 0
DWIDTH 21 0
BBX 19 32 1 -9
BITMAP
D5FFE0
D5FFE0
D50000
D5FFE0
D50000
D5FFE0
D50000
D50000
D50000
D5FFC0
D50000
D5FFC0
D50000
D5FFC0
D5FFC0
D50000
D50000
D5FFE0
D5FFE0
D50000
D5FFE0
D50000
D5FFE0
000300
000260
0002C0
000680
0006A0
0006A0
0006A0
0006A0
0006A0
ENDCHAR
STARTCHAR Ecaron
ENCODING 282
SWIDTH 706 0
DWIDTH 23 0
BBX 20 37 1 0
BITMAP
029A00
02D200
035400
017400
012C00
00A800
00C800
00D000
000000
000000
000000
D5FFF0
D50000
D5FFF0
D5FFF0
D50000
D5FFF0
D50000
D50000
D50000
D50000
D5FC00
D50000
D5FC00
D5FC00
D50000
D5FC00
D50000
D50000
D50000
D50000
D5FFF0
D5FFF0
D50000
D5FFF0
D50000
D5FFF0
ENDCHAR
STARTCHAR ecaron
ENCODING 283
SWIDTH 666 0
DWIDTH 21 0
BBX 19 33 1 0
BITMAP
059600
06B400
02A400
02A800
016800
015800
01D000
00B000
000000
000000
D5FFE0
D5FFE0
D50000
D5FFE0
D50000
D5FFE0
D50000
D50000
D50000
D5FFC0
D50000
D5FFC0
D50000
D5FFC0
D5FFC0
D50000
D50000
D5FFE0
D5FFE0
D50000
D5FFE0
D50000
D5FFE0
ENDCHAR
STARTCHAR Gbreve
ENCODING 286
SWIDTH 908 0
DWIDTH 29 0
BBX 27 34 1 -1
BITMAP
0050A000
002F4000
0030C000
000F0000
00000000
00000000
003FC000
00E07000
030F0C00
0679E600
09841900
123FCC80
24C036C0
2D9F9B00
5B606C00
52C03000
94801000
B5000000
AD000000
AD0015A0
AD0015A0
AD0015A0
A50015A0
958015A0
568015A0
5A6035A0
693FF5A0
24C015A0
167FF5A0
198F15A0
0CF075A0
031F95A0
01C035A0
003FE000
ENDCHAR
STARTCHAR gbreve
ENCODING 287
SWIDTH 827 0
DWIDTH 26 0
BBX 24 30 1 -1
BITMAP
00C280
00BC80
004300
003C00
000000
001800
01FF80
070060
0CFF10
1B80C8
367E24
2DC190
4B3CC0
526740
948180
B50000
AD0000
A90000
AD0095
A50095
B58095
D6C195
5A7F95
698095
24FF95
131895
19C395
067E95
038095
00FF00
ENDCHAR
STARTCHAR Gdotaccent
ENCODING 288
SWIDTH 908 0
DWIDTH 29 0
BBX 27 35 1 -1
BITMAP
001F8000
00000000
001F8000
001F8000
00000000
001F8000
00000000
003FC000
00E07000
030F0C00
0679E600
09841900
123FCC80
24C036C0
2D9F9B00
5B606C00
52C03000
94801000
B5000000
AD000000
AD0015A0
AD0015A0
AD0015A0
A50015A0
958015A0
568015A0
5A6035A0
693FF5A0
24C015A0
167FF5A0
198F15A0
0CF075A0
031F95A0
01C035A0
003FE000
ENDCHAR
STARTCHAR gdotaccent
ENCODING 289
SWIDTH 827 0
DWIDTH 26 0
BBX 24 32 1 -1
BITMAP
007E00
000000
007E00
007E00
000000
007E00
000000
001800
01FF80
070060
0CFF10
1B80C8
367E24
2DC190
4B3CC0
526740
948180
B50000
AD0000
A90000
AD0095
A50095
B58095
D6C195
5A7F95
698095
24FF95
131895
19C395
067E95
038095
00FF00
ENDCHAR
STARTCHAR Gcommaaccent
ENCODING 290
SWIDTH 908 0
DWIDTH 29 0
BBX 27 39 1 -12
BITMAP
003FC000
00E07000
030F0C00
0679E600
09841900
123FCC80
24C036C0
2D9F9B00
5B606C00
52C03000
94801000
B5000000
AD000000
AD0015A0
AD0015A0
AD0015A0
A50015A0
958015A0
568015A0
5A6035A0
693FF5A0
24C015A0
167FF5A0
198F15A0
0CF075A0
031F95A0
01C035A0
003FE000
00000000
00148000
00148000
00148000
00148000
00148000
00048000
00058000
00190000
00030000
001E0000
ENDCHAR
STARTCHAR gcommaaccent
ENCODING 291
SWIDTH 827 0
DWIDTH 26 0
BBX 24 25 1 -1
BITMAP
001800
01FF80
070060
0CFF10
1B80C8
367E24
2DC190
4B3CC0
526740
948180
B50000
AD0000
A90000
AD0095
A50095
B58095
D6C195
5A7F95
698095
24FF95
131895
19C395
067E95
038095
00FF00
ENDCHAR
STARTCHAR Hcircumflex
ENCODING 292
SWIDTH 901 0
DWIDTH 29 0
BBX 26 36 1 0
BITMAP
001A0000
001B0000
001D0000
00258000
002E8000
006A8000
004AC000
00534000
00000000
00000000
D5003540
D5003540
D5003540
D5003540
D5003540
D5003540
D5003540
D5003540
D5003540
D5003540
D5FFF540
D5003540
D5FFF540
D5FFF540
D5003540
D5FFF540
D5003540
D5003540
D5003540
D5003540
D5003540
D5003540
D5003540
D5003540
D5003540
D5003540
ENDCHAR
STARTCHAR hcircumflex
ENCODING 293
SWIDTH 830 0
DWIDTH 27 0
BBX 24 33 1 0
BITMAP
003400
003600
003A00
004A00
005900
00D500
00B580
01A680
000000
000000
D500B5
D500B5
D500B5
D500B5
D500B5
D500B5
D500B5
D500B5
D5FFB5
D5FFB5
D500B5
D5FFB5
D500B5
D5FFB5
D500B5
D500B5
D500B5
D500B5
D500B5
D500B5
D500B5
D500B5
D500B5
ENDCHAR
STARTCHAR Hbar
ENCODING 294
SWIDTH 901 0
DWIDTH 29 0
BBX 31 26 -1 0
BITMAP
35400D50
35400D50
35400D50
F55FFD56
35400D50
35400D50
F55FFD56
35400D50
35400D50
35400D50
357FFD50
35400D50
357FFD50
357FFD50
35400D50
357FFD50
35400D50
35400D50
35400D50
35400D50
35400D50
35400D50
35400D50
35400D50
35400D50
35400D50
ENDCHAR
STARTCHAR hbar
ENCODING 295
SWIDTH 830 0
DWIDTH 27 0
BBX 28 23 -1 0
BITMAP
35402D40
35402D40
35402D40
F55FED50
35402D40
F55FED50
35402D40
35402D40
357FED40
357FED40
35402D40
357FED40
35402D40
357FED40
35402D40
35402D40
35402D40
35402D40
35402D40
35402D40
35402D40
35402D40
35402D40
ENDCHAR
STARTCHAR Itilde
ENCODING 296
SWIDTH 338 0
DWIDTH 11 0
BBX 19 35 -4 0
BITMAP
1FF8A0
7FF9A0
C00320
9FFE40
A000C0
A7FF80
000000
000000
000000
06A800
06A800
06A800
06A800
06A800
06A800
06A800
06A800
06A800
06A800
06A800
06A800
06A800
06A800
06A800
06A800
06A800
06A800
06A800
06A800
06A800
06A800
06A800
06A800
06A800
06A800
ENDCHAR
STARTCHAR itilde
ENCODING 297
SWIDTH 337 0
DWIDTH 11 0
BBX 19 31 -4 0
BITMAP
1FF8A0
7FF9A0
C00320
9FFE40
A000C0
A7FF80
000000
000000
06A800
06A800
06A800
06A800
06A800
06A800
06A800
06A800
06A800
06A800
06A800
06A800
06A800
06A800
06A800
06A800
06A800
06A800
06A800
06A800
06A800
06A800
06A800
ENDCHAR
STARTCHAR Imacron
ENCODING 298
SWIDTH 338 0
DWIDTH 11 0
BBX 8 26 1 0
BITMAP
D5
D5
D5
D5
D5
D5
D5
D5
D5
D5
D5
D5
D5
D5
D5
D5
D5
D5
D5
D5
D5
D5
D5
D5
D5
D5
ENDCHAR
STARTCHAR imacron
ENCODING 299
SWIDTH 337 0
DWIDTH 11 0
BBX 8 23 1 0
BITMAP
D5
D5
D5
D5
D5
D5
D5
D5
D5
D5
D5
D5
D5
D5
D5
D5
D5
D5
D5
D5
D5
D5
D5
ENDCHAR
STARTCHAR Ibreve
ENCODING 300
SWIDTH 338 0
DWIDTH 11 0
BBX 9 33 1 0
BITMAP
C280
BE80
4100
3E00
0000
0000
0000
D500
D500
D500
D500
D500
D500
D500
D500
D500
D500
D500
D500
D500
D500
D500
D500
D500
D500
D500
D500
D500
D500
D500
D500
D500
D500
ENDCHAR
STARTCHAR ibreve
ENCODING 301
SWIDTH 337 0
DWIDTH 11 0
BBX 9 29 1 0
BITMAP
C280
BE80
4100
3E00
0000
0000
D500
D500
D500
D500
D500
D500
D500
D500
D500
D500
D500
D500
D500
D500
D500
D500
D500
D500
D500
D500
D500
D500
D500
ENDCHAR
STARTCHAR Iogonek
ENCODING 302
SWIDTH 338 0
DWIDTH 11 0
BBX 8 35 1 -9
BITMAP
D5
D5
D5
D5
D5
D5
D5
D5
D5
D5
D5
D5
D5
D5
D5
D5
D5
D5
D5
D5
D5
D5
D5
D5
D5
D7
0C
13
16
14
15
15
15
15
15
ENDCHAR
STARTCHAR iogonek
ENCODING 303
SWIDTH 337 0
DWIDTH 11 0
BBX 8 32 1 -9
BITMAP
D5
D5
D5
D5
D5
D5
D5
D5
D5
D5
D5
D5
D5
D5
D5
D5
D5
D5
D5
D5
D5
D5
D7
0C
13
16
14
15
15
15
15
15
ENDCHAR
STARTCHAR Idotaccent
ENCODING 304
SWIDTH 338 0
DWIDTH 11 0
BBX 8 34 1 0
BITMAP
3E
00
3E
3E
00
3E
00
00
D5
D5
D5
D5
D5
D5
D5
D5
D5
D5
D5
D5
D5
D5
D5
D5
D5
D5
D5
D5
D5
D5
D5
D5
D5
D5
ENDCHAR
STARTCHAR dotlessi
ENCODING 305
SWIDTH 337 0
DWIDTH 11 0
BBX 8 23 1 0
BITMAP
D5
D5
D5
D5
D5
D5
D5
D5
D5
D5
D5
D5
D5
D5
D5
D5
D5
D5
D5
D5
D5
D5
D5
ENDCHAR
STARTCHAR IJ
ENCODING 306
SWIDTH 774 0
DWIDTH 25 0
BBX 22 27 1 -1
BITMAP
D50354
D50354
D50354
D50354
D50354
D50354
D50354
D50354
D50354
D50354
D50354
D50354
D50354
D50354
D50354
D50354
D50354
D50354
D502D4
D51EB4
D501AC
D51F68
D518D8
D50390
D51E60
D501C0
001F00
ENDCHAR
STARTCHAR ij
ENCODING 307
SWIDTH 729 0
DWIDTH 23 0
BBX 21 26 1 -3
BITMAP
D50528
D50528
D50528
D50528
D50528
D50528
D50528
D50528
D50528
D50528
D50528
D50528
D50528
D50528
D50528
D50528
D50528
D50568
D51948
D53250
D50C90
D519A0
D50760
001CC0
000380
001E00
ENDCHAR
STARTCHAR Jcircumflex
ENCODING 308
SWIDTH 434 0
DWIDTH 14 0
BBX 12 37 1 -1
BITMAP
0280
0640
0540
0D60
0BA0
0AA0
1290
1450
0000
0000
0AA0
0AA0
0AA0
0AA0
0AA0
0AA0
0AA0
0AA0
0AA0
0AA0
0AA0
0AA0
0AA0
0AA0
0AA0
0AA0
0AA0
0AA0
12A0
F4A0
0D20
FB40
C640
1C80
F300
0E00
F800
ENDCHAR
STARTCHAR jcircumflex
ENCODING 309
SWIDTH 393 0
DWIDTH 13 0
BBX 11 36 1 -3
BITMAP
0D00
0D80
0E80
1280
1640
3740
2D60
69A0
0000
0000
2540
2540
2540
2540
2540
2540
2540
2540
2540
2540
2540
2540
2540
2540
2540
2540
2540
2D40
EB40
9AC0
7680
CD80
3B00
E600
1C00
F000
ENDCHAR
STARTCHAR Kcommaaccent
ENCODING 310
SWIDTH 815 0
DWIDTH 26 0
BBX 24 37 1 -11
BITMAP
D501AD
D5016B
D5035A
D502D6
D506B4
D505AC
D50D68
D50B58
D51AD0
D516B0
D535A0
D52D60
D56B40
D54B40
D52D60
D525A0
D516B0
D51AD0
D50B58
D50D68
D505AC
D506B4
D502D6
D5035A
D5016B
D501AD
000000
002A00
002A00
002A00
002A00
002A00
000A00
001A00
003200
000600
003800
ENDCHAR
STARTCHAR kcommaaccent
ENCODING 311
SWIDTH 801 0
DWIDTH 26 0
BBX 24 34 1 -11
BITMAP
D501AD
D5016B
D50252
D50294
D504A4
D50528
D50B48
D51AD0
D516B0
D535A0
D52D60
D54B40
D56B40
D52D60
D534A0
D51290
D50A50
D50948
D5052C
D506B4
D502D6
D5035A
D5016B
000000
006A00
006A00
006A00
006A00
006A00
000A00
001A00
007200
000400
007800
ENDCHAR
STARTCHAR kgreenlandic
ENCODING 312
SWIDTH 801 0
DWIDTH 26 0
BBX 24 23 1 0
BITMAP
D501AD
D5016B
D50252
D50294
D504A4
D50528
D50B48
D51AD0
D516B0
D535A0
D52D60
D54B40
D56B40
D52D60
D534A0
D51290
D50A50
D50948
D5052C
D506B4
D502D6
D5035A
D5016B
ENDCHAR
STARTCHAR Lacute
ENCODING 313
SWIDTH 604 0
DWIDTH 19 0
BBX 19 36 1 0
BITMAP
0001C0
000720
0018E0
006380
038E00
013000
00C000
000000
000000
000000
D50000
D50000
D50000
D50000
D50000
D50000
D50000
D50000
D50000
D50000
D50000
D50000
D50000
D50000
D50000
D50000
D50000
D50000
D50000
D50000
D5FF80
D5FF80
D50000
D5FF80
D50000
D5FF80
ENDCHAR
STARTCHAR lacute
ENCODING 314
SWIDTH 583 0
DWIDTH 19 0
BBX 17 32 1 0
BITMAP
003800
00E400
038E00
0E7000
39C000
270000
1C0000
000000
000000
D50000
D50000
D50000
D50000
D50000
D50000
D50000
D50000
D50000
D50000
D50000
D50000
D50000
D50000
D50000
D50000
D50000
D5FF80
D5FF80
D50000
D5FF80
D50000
D5FF80
ENDCHAR
STARTCHAR Lcommaaccent
ENCODING 315
SWIDTH 604 0
DWIDTH 19 0
BBX 17 37 1 -11
BITMAP
D50000
D50000
D50000
D50000
D50000
D50000
D50000
D50000
D50000
D50000
D50000
D50000
D50000
D50000
D50000
D50000
D50000
D50000
D50000
D50000
D5FF80
D5FF80
D50000
D5FF80
D50000
D5FF80
000000
029000
029000
029000
029000
029000
009000
00B000
03A000
006000
03C000
ENDCHAR
STARTCHAR lcommaaccent
ENCODING 316
SWIDTH 583 0
DWIDTH 19 0
BBX 17 34 1 -11
BITMAP
D50000
D50000
D50000
D50000
D50000
D50000
D50000
D50000
D50000
D50000
D50000
D50000
D50000
D50000
D50000
D50000
D50000
D5FF80
D5FF80
D50000
D5FF80
D50000
D5FF80
000000
02A000
02A000
02A000
02A000
02A000
00A000
00A000
032000
006000
03C000
ENDCHAR
STARTCHAR Lcaron
ENCODING 317
SWIDTH 856 0
DWIDTH 27 0
BBX 25 27 1 0
BITMAP
00000A80
D5000A80
D5000A80
D5000A80
D5000A80
D5000280
D5000280
D5000C80
D5000180
D5000F00
D5000000
D5000000
D5000000
D5000000
D5000000
D5000000
D5000000
D5000000
D5000000
D5000000
D5000000
D5FF8000
D5FF8000
D5000000
D5FF8000
D5000000
D5FF8000
ENDCHAR
STARTCHAR lcaron
ENCODING 318
SWIDTH 584 0
DWIDTH 19 0
BBX 17 24 1 0
BITMAP
001500
D51500
D51500
D51500
D51500
D50500
D50500
D51900
D50300
D51E00
D50000
D50000
D50000
D50000
D50000
D50000
D50000
D50000
D5FF80
D5FF80
D50000
D5FF80
D50000
D5FF80
ENDCHAR
STARTCHAR Ldot
ENCODING 319
SWIDTH 604 0
DWIDTH 19 0
BBX 17 26 1 0
BITMAP
D50000
D50000
D50000
D50000
D50000
D50000
D50000
D50000
D50000
D50000
D53F00
D50000
D53F00
D50000
D53F00
D53F00
D50000
D50000
D50000
D50000
D5FF80
D5FF80
D50000
D5FF80
D50000
D5FF80
ENDCHAR
STARTCHAR ldot
ENCODING 320
SWIDTH 582 0
DWIDTH 19 0
BBX 17 23 1 0
BITMAP
D50000
D50000
D50000
D50000
D50000
D53F00
D50000
D53F00
D50000
D53F00
D53F00
D50000
D50000
D50000
D50000
D50000
D50000
D5FF80
D5FF80
D50000
D5FF80
D50000
D5FF80
ENDCHAR
STARTCHAR Lslash
ENCODING 321
SWIDTH 604 0
DWIDTH 19 0
BBX 20 26 -2 0
BITMAP
1AA000
1AA000
1AA000
1AA000
1AA000
1AA000
1AA380
1AAC00
1AA180
1AAE00
3AA880
FAA700
9AA800
FAA000
9AA000
7AA000
9AA000
1AA000
1AA000
1AA000
1ABFF0
1ABFF0
1AA000
1ABFF0
1AA000
1ABFF0
ENDCHAR
STARTCHAR lslash
ENCODING 322
SWIDTH 581 0
DWIDTH 19 0
BBX 20 23 -2 0
BITMAP
1AA000
1AA000
1AA000
1AA000
1AA080
1AA780
1AAC00
1AA380
1AAC00
3AA180
DAAE00
3AA800
FAA000
9AA000
FAA000
9AA000
1AA000
1ABFF0
1ABFF0
1AA000
1ABFF0
1AA000
1ABFF0
ENDCHAR
STARTCHAR Nacute
ENCODING 323
SWIDTH 877 0
DWIDTH 28 0
BBX 26 36 1 0
BITMAP
00001C00
00007200
0001CE00
00073800
003CE000
00138000
000E0000
00000000
00000000
00000000
DAC02AC0
E9602AC0
E5A02AC0
D4B02AC0
D2D02AC0
EB482AC0
DD2C2AC0
D4B42AC0
D2D22AC0
D75A2AC0
D5692AC0
D5A5AAC0
D496AAC0
D55A6AC0
D5696AC0
D525AAC0
D514BAC0
D512D2C0
D50B4AC0
D50D2EC0
D504B5C0
D502D6C0
D5035AC0
D50169C0
D501A5C0
D500D6C0
ENDCHAR
STARTCHAR nacute
ENCODING 324
SWIDTH 787 0
DWIDTH 25 0
BBX 23 32 1 0
BITMAP
000030
0000C4
000318
000C60
007180
004600
001800
000000
000000
D2C052
CB4052
ED2052
F5A052
D69052
DA5852
E96852
D52C52
D4B452
D2D252
D74A52
D56952
D5A5D2
D496B2
D45AD2
D44B52
D42D2A
D434B2
D41292
D41A5A
D4096A
D405A6
D406B6
ENDCHAR
STARTCHAR Ncommaaccent
ENCODING 325
SWIDTH 877 0
DWIDTH 28 0
BBX 26 37 1 -11
BITMAP
DAC02AC0
E9602AC0
E5A02AC0
D4B02AC0
D2D02AC0
EB482AC0
DD2C2AC0
D4B42AC0
D2D22AC0
D75A2AC0
D5692AC0
D5A5AAC0
D496AAC0
D55A6AC0
D5696AC0
D525AAC0
D514BAC0
D512D2C0
D50B4AC0
D50D2EC0
D504B5C0
D502D6C0
D5035AC0
D50169C0
D501A5C0
D500D6C0
00000000
002D0000
002D0000
002D0000
002D0000
002D0000
000D0000
00090000
003B0000
00060000
003C0000
ENDCHAR
STARTCHAR ncommaaccent
ENCODING 326
SWIDTH 787 0
DWIDTH 25 0
BBX 23 34 1 -11
BITMAP
D2C052
CB4052
ED2052
F5A052
D69052
DA5852
E96852
D52C52
D4B452
D2D252
D74A52
D56952
D5A5D2
D496B2
D45AD2
D44B52
D42D2A
D434B2
D41292
D41A5A
D4096A
D405A6
D406B6
000000
005400
005400
005400
005400
005400
001400
001400
006400
000C00
007800
ENDCHAR
STARTCHAR Ncaron
ENCODING 327
SWIDTH 877 0
DWIDTH 28 0
BBX 26 37 1 0
BITMAP
00924000
00528000
005E8000
00758000
00250000
00290000
001A0000
001A0000
00000000
00000000
00000000
DAC02AC0
E9602AC0
E5A02AC0
D4B02AC0
D2D02AC0
EB482AC0
DD2C2AC0
D4B42AC0
D2D22AC0
D75A2AC0
D5692AC0
D5A5AAC0
D496AAC0
D55A6AC0
D5696AC0
D525AAC0
D514BAC0
D512D2C0
D50B4AC0
D50D2EC0
D504B5C0
D502D6C0
D5035AC0
D50169C0
D501A5C0
D500D6C0
ENDCHAR
STARTCHAR ncaron
ENCODING 328
SWIDTH 787 0
DWIDTH 25 0
BBX 23 33 1 0
BITMAP
014500
012D00
00AB00
00AA00
00D200
005400
007400
002C00
000000
000000
D2C052
CB4052
ED2052
F5A052
D69052
DA5852
E96852
D52C52
D4B452
D2D252
D74A52
D56952
D5A5D2
D496B2
D45AD2
D44B52
D42D2A
D434B2
D41292
D41A5A
D4096A
D405A6
D406B6
ENDCHAR
STARTCHAR Eng
ENCODING 330
SWIDTH 874 0
DWIDTH 28 0
BBX 25 36 1 -10
BITMAP
DAC02A80
E9602A80
E5A02A80
D6902A80
DA582A80
E9682A80
DDA42A80
D4B62A80
D2DA2A80
D74B2A80
D52DAA80
D4B4AA80
D4D2AA80
D54B2A80
D52D2A80
D534AA80
D512AA80
D51B2A80
D5092A80
D505AA80
D506AA80
D502AA80
D5012A80
D501AA80
D500AA80
D500AA80
00002A80
00004A80
0003D280
00003480
0003ED00
00031B00
00007200
0003CC00
00003800
0003E000
ENDCHAR
STARTCHAR eng
ENCODING 331
SWIDTH 691 0
DWIDTH 22 0
BBX 20 32 1 -9
BITMAP
D2C290
CB4290
ED2290
F5A290
D69290
DA5A90
E96A90
DD2A90
D4B690
D2D290
D74A90
D56A90
D5A690
D49690
D45A90
D44A90
D42A90
D43690
D41290
D41A90
D40A90
D40A90
D40690
000290
0002B0
0006A0
001DA0
000360
001E40
001180
000F00
001C00
ENDCHAR
STARTCHAR Omacron
ENCODING 332
SWIDTH 933 0
DWIDTH 30 0
BBX 28 28 1 -1
BITMAP
003FC000
00E07000
030F0C00
0679E600
09841900
123FCC80
24C036C0
2D9F9B40
5B606D20
52C034A0
948012B0
B5000A90
AD000A50
AD000A50
AD000B50
AD000A50
B5000A90
958012B0
56C034A0
5A606D20
693F9B40
24C03240
127FC480
19861900
0CF0E200
031F8C00
01C07000
003FC000
ENDCHAR
STARTCHAR omacron
ENCODING 333
SWIDTH 833 0
DWIDTH 27 0
BBX 25 25 1 -1
BITMAP
001C0000
01FF8000
07006000
0CFF1000
1B80C800
367E2400
2DC19200
4B3CCA00
52676900
9481A500
B5009500
AD005580
A9005580
AD005580
A500D500
B580B500
D6C12D00
5A7E6B00
6980DA00
24FF3600
13186C00
19C39800
067E3000
0380C000
00FF0000
ENDCHAR
STARTCHAR Obreve
ENCODING 334
SWIDTH 933 0
DWIDTH 30 0
BBX 28 34 1 -1
BITMAP
0050A000
002F4000
0030C000
000F0000
00000000
00000000
003FC000
00E07000
030F0C00
0679E600
09841900
123FCC80
24C036C0
2D9F9B40
5B606D20
52C034A0
948012B0
B5000A90
AD000A50
AD000A50
AD000B50
AD000A50
B5000A90
958012B0
56C034A0
5A606D20
693F9B40
24C03240
127FC480
19861900
0CF0E200
031F8C00
01C07000
003FC000
ENDCHAR
STARTCHAR obreve
ENCODING 335
SWIDTH 833 0
DWIDTH 27 0
BBX 25 30 1 -1
BITMAP
00C28000
00BC8000
00430000
003C0000
00000000
001C0000
01FF8000
07006000
0CFF1000
1B80C800
367E2400
2DC19200
4B3CCA00
52676900
9481A500
B5009500
AD005580
A9005580
AD005580
A500D500
B580B500
D6C12D00
5A7E6B00
6980DA00
24FF3600
13186C00
19C39800
067E3000
0380C000
00FF0000
ENDCHAR
STARTCHAR Ohungarumlaut
ENCODING 336
SWIDTH 933 0
DWIDTH 30 0
BBX 30 37 1 -1
BITMAP
00038030
000E40C4
0039E31C
00E70C60
079C7180
02702600
01C01800
00000000
00000000
003FC000
00E07000
030F0C00
0679E600
09841900
123FCC80
24C036C0
2D9F9B40
5B606D20
52C034A0
948012B0
B5000A90
AD000A50
AD000A50
AD000B50
AD000A50
B5000A90
958012B0
56C034A0
5A606D20
693F9B40
24C03240
127FC480
19861900
0CF0E200
031F8C00
01C07000
003FC000
ENDCHAR
STARTCHAR ohungarumlaut
ENCODING 337
SWIDTH 833 0
DWIDTH 27 0
BBX 29 33 1 -1
BITMAP
000E00E0
00390390
00E38E78
039C39C0
0E71E700
09C09C00
07007000
00000000
001C0000
01FF8000
07006000
0CFF1000
1B80C800
367E2400
2DC19200
4B3CCA00
52676900
9481A500
B5009500
AD005580
A9005580
AD005580
A500D500
B580B500
D6C12D00
5A7E6B00
6980DA00
24FF3600
13186C00
19C39800
067E3000
0380C000
00FF0000
ENDCHAR
STARTCHAR OE
ENCODING 338
SWIDTH 1317 0
DWIDTH 42 0
BBX 40 28 1 -1
BITMAP
003FC00000
00E0725FFF
031F0E5000
0479E65FFF
09841A5FFF
123FCE5000
24C0365FFF
699F9A5000
5B606E5000
56C0365000
9480125000
B5000A5FC0
AD000A5000
AD000A5FC0
A9000A5FC0
AD000A5000
B5000A5FC0
9580125000
56C0365000
5A606E5000
693F9A5000
24C0325FFF
127FCE5FFF
19871A5000
0CF0E65FFF
031F8E5000
01C0725FFF
003FC00000
ENDCHAR
STARTCHAR oe
ENCODING 339
SWIDTH 1174 0
DWIDTH 38 0
BBX 35 25 1 -1
BITMAP
0018000000
01FF95FFE0
070055FFE0
0CFF158000
1B80D5FFE0
367E558000
2DC195FFE0
4B3CD58000
5267558000
9481B58000
B50095FFE0
AD00558000
A90055FFE0
AD00558000
A500D5FFE0
B58095FFE0
D6C1358000
5A7E558000
6980D5FFE0
24FF35FFE0
1318558000
19C395FFE0
067E358000
0380D5FFE0
00FF000000
ENDCHAR
STARTCHAR Racute
ENCODING 340
SWIDTH 843 0
DWIDTH 27 0
BBX 25 36 1 0
BITMAP
00038000
000E4000
0039E000
00E70000
079C0000
02700000
01C00000
00000000
00000000
00000000
FFFFC000
C0003800
DFFF8C00
DFFFF600
D0001B00
D7FFCD00
D4003580
D5FF9680
D5005280
D5005A80
D5005280
D57F9480
D5002580
D57FCD00
D5001B00
D57FE600
D57F0C00
D5007800
D57FE800
D506A800
D502AC00
D502B400
D5025400
D5015600
D5015A00
D501AB00
ENDCHAR
STARTCHAR Rcommaaccent
ENCODING 342
SWIDTH 843 0
DWIDTH 27 0
BBX 25 37 1 -11
BITMAP
FFFFC000
C0003800
DFFF8C00
DFFFF600
D0001B00
D7FFCD00
D4003580
D5FF9680
D5005280
D5005A80
D5005280
D57F9480
D5002580
D57FCD00
D5001B00
D57FE600
D57F0C00
D5007800
D57FE800
D506A800
D502AC00
D502B400
D5025400
D5015600
D5015A00
D501AB00
00000000
005A0000
005A0000
005A0000
005A0000
005A0000
001A0000
00120000
00760000
000C0000
00780000
ENDCHAR
STARTCHAR rcommaaccent
ENCODING 343
SWIDTH 831 0
DWIDTH 27 0
BBX 25 34 1 -11
BITMAP
FFFF0000
FFFFF000
C0001800
DFFFE400
D0003200
D7FFCB00
D4006D00
D5FFB500
D500D580
D5005580
D57F9500
D5002500
D57FC900
D5001B00
D57FE600
D57F0C00
D5003800
D57FD000
D5055800
D5056800
D506A800
D502A400
D502D400
00000000
00540000
00540000
00540000
00540000
00540000
00140000
00340000
00640000
00080000
00700000
ENDCHAR
STARTCHAR Rcaron
ENCODING 344
SWIDTH 843 0
DWIDTH 27 0
BBX 25 37 1 0
BITMAP
1A680000
0A500000
09D00000
05B00000
04A00000
07200000
03400000
03400000
00000000
00000000
00000000
FFFFC000
C0003800
DFFF8C00
DFFFF600
D0001B00
D7FFCD00
D4003580
D5FF9680
D5005280
D5005A80
D5005280
D57F9480
D5002580
D57FCD00
D5001B00
D57FE600
D57F0C00
D5007800
D57FE800
D506A800
D502AC00
D502B400
D5025400
D5015600
D5015A00
D501AB00
ENDCHAR
STARTCHAR rcaron
ENCODING 345
SWIDTH 831 0
DWIDTH 27 0
BBX 25 33 1 0
BITMAP
00A28000
00948000
00550000
005D0000
006B0000
002A0000
003A0000
00160000
00000000
00000000
FFFF0000
FFFFF000
C0001800
DFFFE400
D0003200
D7FFCB00
D4006D00
D5FFB500
D500D580
D5005580
D57F9500
D5002500
D57FC900
D5001B00
D57FE600
D57F0C00
D5003800
D57FD000
D5055800
D5056800
D506A800
D502A400
D502D400
ENDCHAR
STARTCHAR Sacute
ENCODING 346
SWIDTH 682 0
DWIDTH 22 0
BBX 21 37 1 -1
BITMAP
0000E0
000390
000E78
0039C0
01E700
009C00
007000
000000
000000
03FC00
0E0380
18F860
278F30
4C20C0
5BFE40
960180
A5FE00
AD0000
AD0000
A5FC00
940700
53F180
48FE40
270360
31FDA0
0C06A0
03F290
000AD0
000AD0
07FA90
1806B0
0FFDA0
716360
9E1E40
63F180
3C0700
07FC00
ENDCHAR
STARTCHAR sacute
ENCODING 347
SWIDTH 683 0
DWIDTH 22 0
BBX 21 33 1 -1
BITMAP
0000E0
000390
000E78
0039C0
01E700
009C00
007000
000000
000000
03FE00
1C0380
31F860
6F0F10
5860C0
97FE40
A40180
AC0000
A40000
93FE00
580380
67FCC0
300760
0FF1A0
007EB0
0002D0
0002D0
1C0690
63F9A0
980320
C7FCC0
300180
0FFE00
004000
ENDCHAR
STARTCHAR Scircumflex
ENCODING 348
SWIDTH 682 0
DWIDTH 22 0
BBX 20 37 1 -1
BITMAP
00B000
00D000
015800
016800
03A800
02A400
029400
059600
000000
03FC00
0E0380
18F860
278F30
4C20C0
5BFE40
960180
A5FE00
AD0000
AD0000
A5FC00
940700
53F180
48FE40
270360
31FDA0
0C06A0
03F290
000AD0
000AD0
07FA90
1806B0
0FFDA0
716360
9E1E40
63F180
3C0700
07FC00
ENDCHAR
STARTCHAR scircumflex
ENCODING 349
SWIDTH 683 0
DWIDTH 22 0
BBX 20 34 1 -1
BITMAP
009000
00D000
015800
016800
03A800
02A400
029400
059600
000000
000000
03FE00
1C0380
31F860
6F0F10
5860C0
97FE40
A40180
AC0000
A40000
93FE00
580380
67FCC0
300760
0FF1A0
007EB0
0002D0
0002D0
1C0690
63F9A0
980320
C7FCC0
300180
0FFE00
004000
ENDCHAR
STARTCHAR Scedilla
ENCODING 350
SWIDTH 682 0
DWIDTH 22 0
BBX 20 38 1 -11
BITMAP
03FC00
0E0380
18F860
278F30
4C20C0
5BFE40
960180
A5FE00
AD0000
AD0000
A5FC00
940700
53F180
48FE40
270360
31FDA0
0C06A0
03F290
000AD0
000AD0
07FA90
1806B0
0FFDA0
716360
9E1E40
63F180
3C0700
07FC00
00B000
03B000
043000
0DF000
090000
090000
090000
04F000
060000
03F000
ENDCHAR
STARTCHAR scedilla
ENCODING 351
SWIDTH 683 0
DWIDTH 22 0
BBX 20 33 1 -10
BITMAP
03FE00
1C0380
31F860
6F0F10
5860C0
97FE40
A40180
AC0000
A40000
93FE00
580380
67FCC0
300760
0FF1A0
007EB0
0002D0
0002D0
1C0690
63F9A0
980320
C7FCC0
300180
0FFE00
00F000
03B000
043000
0DF000
0D0000
090000
090000
04F000
060000
03F000
ENDCHAR
STARTCHAR Scaron
ENCODING 352
SWIDTH 682 0
DWIDTH 22 0
BBX 20 38 1 -1
BITMAP
069A00
029400
027400
016C00
012800
01C800
00D800
00D000
000000
000000
03FC00
0E0380
18F860
278F30
4C20C0
5BFE40
960180
A5FE00
AD0000
AD0000
A5FC00
940700
53F180
48FE40
270360
31FDA0
0C06A0
03F290
000AD0
000AD0
07FA90
1806B0
0FFDA0
716360
9E1E40
63F180
3C0700
07FC00
ENDCHAR
STARTCHAR scaron
ENCODING 353
SWIDTH 683 0
DWIDTH 22 0
BBX 20 34 1 -1
BITMAP
069A00
029400
027400
016C00
012800
01C800
00D800
00D000
000000
000000
03FE00
1C0380
31F860
6F0F10
5860C0
97FE40
A40180
AC0000
A40000
93FE00
580380
67FCC0
300760
0FF1A0
007EB0
0002D0
0002D0
1C0690
63F9A0
980320
C7FCC0
300180
0FFE00
004000
ENDCHAR
STARTCHAR Tcommaaccent
ENCODING 354
SWIDTH 591 0
DWIDTH 19 0
BBX 17 36 1 -10
BITMAP
FFFF80
000000
FFFF80
FFFF80
000000
FFFF80
0D5000
0D5000
0D5000
0D5000
0D5000
0D5000
0D5000
0D5000
0D5000
0D5000
0D5000
0D5000
0D5000
0D5000
0D5000
0D5000
0D5000
0D5000
0D5000
0D5000
014000
0F4000
184000
13C000
140000
140000
160000
13C000
080000
07C000
ENDCHAR
STARTCHAR tcommaaccent
ENCODING 355
SWIDTH 588 0
DWIDTH 19 0
BBX 17 33 1 -10
BITMAP
FFFF80
FFFF80
000000
FFFF80
000000
FFFF80
000000
0D5000
0D5000
0D5000
0D5000
0D5000
0D5000
0D5000
0D5000
0D5000
0D5000
0D5000
0D5000
0D5000
0D5000
0D5000
0D5000
014000
0F4000
184000
13C000
140000
140000
160000
13C000
080000
07C000
ENDCHAR
STARTCHAR Tcaron
ENCODING 356
SWIDTH 591 0
DWIDTH 19 0
BBX 17 37 1 0
BITMAP
0A2800
0B4800
0D5000
05D000
04B000
02A000
032000
034000
000000
000000
000000
FFFF80
000000
FFFF80
FFFF80
000000
FFFF80
0D5000
0D5000
0D5000
0D5000
0D5000
0D5000
0D5000
0D5000
0D5000
0D5000
0D5000
0D5000
0D5000
0D5000
0D5000
0D5000
0D5000
0D5000
0D5000
0D5000
ENDCHAR
STARTCHAR tcaron
ENCODING 357
SWIDTH 842 0
DWIDTH 27 0
BBX 25 24 1 0
BITMAP
00001680
FFFF9680
FFFF9680
00001680
FFFF9680
00000680
FFFF8480
00001D80
0D500100
0D501E00
0D500000
0D500000
0D500000
0D500000
0D500000
0D500000
0D500000
0D500000
0D500000
0D500000
0D500000
0D500000
0D500000
0D500000
ENDCHAR
STARTCHAR Tbar
ENCODING 358
SWIDTH 591 0
DWIDTH 19 0
BBX 17 26 1 0
BITMAP
FFFF80
000000
FFFF80
FFFF80
000000
FFFF80
0D5000
0D5000
0D5000
0D5000
FD5780
0D5000
FD5780
FD5780
0D5000
FD5780
0D5000
0D5000
0D5000
0D5000
0D5000
0D5000
0D5000
0D5000
0D5000
0D5000
ENDCHAR
STARTCHAR tbar
ENCODING 359
SWIDTH 588 0
DWIDTH 19 0
BBX 17 23 1 0
BITMAP
FFFF80
FFFF80
000000
FFFF80
000000
FFFF80
000000
0D5000
0D5000
0D5000
0D5000
FD5780
FD5780
0D5000
FD5780
0D5000
FD5780
0D5000
0D5000
0D5000
0D5000
0D5000
0D5000
ENDCHAR
STARTCHAR Utilde
ENCODING 360
SWIDTH 905 0
DWIDTH 29 0
BBX 27 36 1 -1
BITMAP
00FF8A00
07FF9A00
04001200
09FFE400
0B000C00
0A7FF800
00000000
00000000
00000000
95001560
95001560
95001560
95001560
95001560
95001560
95001560
95001560
95001560
95001560
95001560
95001560
95001560
95001560
95001560
95001560
D5802540
56802940
5A60CA40
693F92C0
24C06480
367FCD00
1B0E3300
0CE0E600
073F1800
01C07000
007F8000
ENDCHAR
STARTCHAR utilde
ENCODING 361
SWIDTH 795 0
DWIDTH 25 0
BBX 23 32 1 -1
BITMAP
03FF28
0FFF28
100068
37FF98
240030
2CFFE0
000000
000000
95016A
95016A
95016A
95016A
95016A
95016A
95016A
95016A
95016A
95016A
95016A
95016A
95016A
95016A
D5814A
568352
5A7ED6
4901B4
2CFF6C
3610D8
19C3B0
0C7C60
0381C0
00FF00
ENDCHAR
STARTCHAR Umacron
ENCODING 362
SWIDTH 905 0
DWIDTH 29 0
BBX 27 27 1 -1
BITMAP
95001560
95001560
95001560
95001560
95001560
95001560
95001560
95001560
95001560
95001560
95001560
95001560
95001560
95001560
95001560
95001560
D5802540
56802940
5A60CA40
693F92C0
24C06480
367FCD00
1B0E3300
0CE0E600
073F1800
01C07000
007F8000
ENDCHAR
STARTCHAR umacron
ENCODING 363
SWIDTH 795 0
DWIDTH 25 0
BBX 23 24 1 -1
BITMAP
95016A
95016A
95016A
95016A
95016A
95016A
95016A
95016A
95016A
95016A
95016A
95016A
95016A
95016A
D5814A
568352
5A7ED6
4901B4
2CFF6C
3610D8
19C3B0
0C7C60
0381C0
00FF00
ENDCHAR
STARTCHAR Ubreve
ENCODING 364
SWIDTH 905 0
DWIDTH 29 0
BBX 27 34 1 -1
BITMAP
00614000
005F4000
00208000
001F0000
00000000
00000000
00000000
95001560
95001560
95001560
95001560
95001560
95001560
95001560
95001560
95001560
95001560
95001560
95001560
95001560
95001560
95001560
95001560
D5802540
56802940
5A60CA40
693F92C0
24C06480
367FCD00
1B0E3300
0CE0E600
073F1800
01C07000
007F8000
ENDCHAR
STARTCHAR ubreve
ENCODING 365
SWIDTH 795 0
DWIDTH 25 0
BBX 23 30 1 -1
BITMAP
014300
017D00
008200
007C00
000000
000000
95016A
95016A
95016A
95016A
95016A
95016A
95016A
95016A
95016A
95016A
95016A
95016A
95016A
95016A
D5814A
568352
5A7ED6
4901B4
2CFF6C
3610D8
19C3B0
0C7C60
0381C0
00FF00
ENDCHAR
STARTCHAR Uring
ENCODING 366
SWIDTH 905 0
DWIDTH 29 0
BBX 27 38 1 -1
BITMAP
001F0000
00218000
007E8000
00514000
00514000
005A8000
00248000
001F0000
00000000
00000000
00000000
95001560
95001560
95001560
95001560
95001560
95001560
95001560
95001560
95001560
95001560
95001560
95001560
95001560
95001560
95001560
95001560
D5802540
56802940
5A60CA40
693F92C0
24C06480
367FCD00
1B0E3300
0CE0E600
073F1800
01C07000
007F8000
ENDCHAR
STARTCHAR uring
ENCODING 367
SWIDTH 795 0
DWIDTH 25 0
BBX 23 34 1 -1
BITMAP
007C00
00C200
00BD00
014500
014500
00AD00
009200
007C00
000000
000000
95016A
95016A
95016A
95016A
95016A
95016A
95016A
95016A
95016A
95016A
95016A
95016A
95016A
95016A
D5814A
568352
5A7ED6
4901B4
2CFF6C
3610D8
19C3B0
0C7C60
0381C0
00FF00
ENDCHAR
STARTCHAR Uhungarumlaut
ENCODING 368
SWIDTH 905 0
DWIDTH 29 0
BBX 30 37 1 -1
BITMAP
00030070
000C41C8
0031873C
00C61CE0
07187380
04604E00
01803800
00000000
00000000
00000000
95001560
95001560
95001560
95001560
95001560
95001560
95001560
95001560
95001560
95001560
95001560
95001560
95001560
95001560
95001560
95001560
D5802540
56802940
5A60CA40
693F92C0
24C06480
367FCD00
1B0E3300
0CE0E600
073F1800
01C07000
007F8000
ENDCHAR
STARTCHAR uhungarumlaut
ENCODING 369
SWIDTH 795 0
DWIDTH 25 0
BBX 28 33 1 -1
BITMAP
000C00C0
00310320
00C70C70
031C7180
1C61C600
09811800
06006000
00000000
00000000
95016A00
95016A00
95016A00
95016A00
95016A00
95016A00
95016A00
95016A00
95016A00
95016A00
95016A00
95016A00
95016A00
95016A00
D5814A00
56835200
5A7ED600
4901B400
2CFF6C00
3610D800
19C3B000
0C7C6000
0381C000
00FF0000
ENDCHAR
STARTCHAR Uogonek
ENCODING 370
SWIDTH 905 0
DWIDTH 29 0
BBX 27 36 1 -10
BITMAP
95001560
95001560
95001560
95001560
95001560
95001560
95001560
95001560
95001560
95001560
95001560
95001560
95001560
95001560
95001560
95001560
D5802540
56802940
5A60CA40
693F92C0
24C06480
367FCD00
1B0E3300
0CE0E600
073F1800
01C07000
007F8000
00300000
004C0000
00580000
00500000
00540000
00540000
00540000
00540000
00540000
ENDCHAR
STARTCHAR uogonek
ENCODING 371
SWIDTH 794 0
DWIDTH 25 0
BBX 23 33 1 -10
BITMAP
95016A
95016A
95016A
95016A
95016A
95016A
95016A
95016A
95016A
95016A
95016A
95016A
95016A
95016A
95815A
548352
527CD6
4901B4
2CFF6C
3610D8
19C3B0
0C7C60
0381C0
00FE00
00C000
013000
016000
014000
015000
015000
015000
015000
015000
ENDCHAR
STARTCHAR Ycircumflex
ENCODING 374
SWIDTH 789 0
DWIDTH 25 0
BBX 24 36 1 0
BITMAP
002C00
007400
005400
005600
009A00
00AB00
01AD00
016500
000000
000000
AB00AB
B5016A
558156
5A82D4
2AC2AC
2D44A8
156548
14A950
0AAAD0
0A5AA0
0D55A0
053540
06AB40
02EA80
025680
015500
01A500
00AB00
00AB00
00AB00
00AB00
00AB00
00AB00
00AB00
00AB00
00AB00
ENDCHAR
STARTCHAR ycircumflex
ENCODING 375
SWIDTH 733 0
DWIDTH 23 0
BBX 23 33 0 0
BITMAP
002C00
007400
005400
005200
00AA00
00AB00
01AD00
016580
000000
000000
D5016A
528156
2AC2D4
2942AC
1525A8
16A558
0A9950
0B4A90
0572A0
05D520
02B540
02AB40
016A80
015680
00D500
00A500
00A500
00A500
00A500
00A500
00A500
00A500
00A500
ENDCHAR
STARTCHAR Ydieresis
ENCODING 376
SWIDTH 789 0
DWIDTH 25 0
BBX 24 32 1 0
BITMAP
0AC2A0
0AC2A0
0AC2A0
000000
000000
000000
AB00AB
B5016A
558156
5A82D4
2AC2AC
2D44A8
156548
14A950
0AAAD0
0A5AA0
0D55A0
053540
06AB40
02EA80
025680
015500
01A500
00AB00
00AB00
00AB00
00AB00
00AB00
00AB00
00AB00
00AB00
00AB00
ENDCHAR
STARTCHAR Zacute
ENCODING 377
SWIDTH 854 0
DWIDTH 27 0
BBX 25 36 1 0
BITMAP
00001800
00006200
00018C00
00063000
0018C000
00230000
000C0000
00000000
00000000
00000000
FFFFFF80
00000180
FFFFF600
FFFFCC80
00013B00
FFFE6680
0008D980
FFF33300
0006CC80
00199980
00366600
00CCCC00
019B3000
06666000
0CD98000
33330000
66EC0000
99980000
3363FF80
CCC40000
9B1FFF80
667FFF80
D8000000
37FFFF80
C0000000
FFFFFF80
ENDCHAR
STARTCHAR zacute
ENCODING 378
SWIDTH 714 0
DWIDTH 23 0
BBX 21 32 1 0
BITMAP
000060
000190
000638
0018C0
00E300
008C00
003000
000000
000000
001480
FFE968
001A48
FFD6D0
0024B0
FFED20
004B40
00D2C0
00B480
012D80
034900
02DA00
049600
0DA400
096800
1A5800
16D000
25B7F8
692FF8
5B4000
92DFF8
B48000
EDFFF8
ENDCHAR
STARTCHAR Zdotaccent
ENCODING 379
SWIDTH 854 0
DWIDTH 27 0
BBX 25 34 1 0
BITMAP
003E0000
00000000
003E0000
003E0000
00000000
003E0000
00000000
00000000
FFFFFF80
00000180
FFFFF600
FFFFCC80
00013B00
FFFE6680
0008D980
FFF33300
0006CC80
00199980
00366600
00CCCC00
019B3000
06666000
0CD98000
33330000
66EC0000
99980000
3363FF80
CCC40000
9B1FFF80
667FFF80
D8000000
37FFFF80
C0000000
FFFFFF80
ENDCHAR
STARTCHAR zdotaccent
ENCODING 380
SWIDTH 714 0
DWIDTH 23 0
BBX 21 31 1 0
BITMAP
00F800
000000
00F800
00F800
000000
00F800
000000
000000
001480
FFE968
001A48
FFD6D0
0024B0
FFED20
004B40
00D2C0
00B480
012D80
034900
02DA00
049600
0DA400
096800
1A5800
16D000
25B7F8
692FF8
5B4000
92DFF8
B48000
EDFFF8
ENDCHAR
STARTCHAR Zcaron
ENCODING 381
SWIDTH 854 0
DWIDTH 27 0
BBX 25 37 1 0
BITMAP
00B28000
00968000
00558000
00550000
00690000
002A0000
003A0000
00160000
00000000
00000000
00000000
FFFFFF80
00000180
FFFFF600
FFFFCC80
00013B00
FFFE6680
0008D980
FFF33300
0006CC80
00199980
00366600
00CCCC00
019B3000
06666000
0CD98000
33330000
66EC0000
99980000
3363FF80
CCC40000
9B1FFF80
667FFF80
D8000000
37FFFF80
C0000000
FFFFFF80
ENDCHAR
STARTCHAR zcaron
ENCODING 382
SWIDTH 714 0
DWIDTH 23 0
BBX 21 33 1 0
BITMAP
028A00
025A00
015600
017400
01A400
00A800
00E800
005800
000000
000000
001480
FFE968
001A48
FFD6D0
0024B0
FFED20
004B40
00D2C0
00B480
012D80
034900
02DA00
049600
0DA400
096800
1A5800
16D000
25B7F8
692FF8
5B4000
92DFF8
B48000
EDFFF8
ENDCHAR
STARTCHAR florin
ENCODING 402
SWIDTH 388 0
DWIDTH 12 0
BBX 10 29 1 -2
BITMAP
03C0
0600
09C0
1300
1440
35C0
2500
2500
2500
E540
2500
E540
2500
E540
E540
2500
2500
2500
2500
2500
2500
2500
2500
2500
E900
1A00
F600
0C00
F800
ENDCHAR
STARTCHAR uni01C4
ENCODING 452
SWIDTH 1740 0
DWIDTH 56 0
BBX 53 37 1 0
BITMAP
000000000D2400
00000000052800
0000000005E800
00000000075800
00000000025000
00000000029000
0000000001A000
0000000001A000
00000000000000
00000000000000
00000000000000
FFFF8007FFFFF8
C0007000000018
DFFF1807FFFF30
DFFFE607FFFEC8
D0003200001998
D7FFC907FFE668
D4006580000CC8
D5FF9687FFB330
D500DAC0006668
D5006A40019998
D5002940033330
D5002D4004CCC0
D5002540199980
D5002540366600
D5002D40CCCC00
D5002941B33000
D5006B46666000
D500DAC4998000
D5FF9683333FF8
D4002586CC4000
D7FFC90999FFF8
D7FE130667FFF8
D000E604C00000
DFFF8C033FFFF8
C0007006000000
FFFFC007FFFFF8
ENDCHAR
STARTCHAR uni01C5
ENCODING 453
SWIDTH 1601 0
DWIDTH 51 0
BBX 49 33 1 0
BITMAP
00000000249000
0000000014A000
0000000017A000
000000001D6000
00000000094000
000000000A4000
00000000068000
FFFF8000068000
C0007000000000
DFFF1800000000
DFFFE600010900
D0003207FED280
D7FFC90002B680
D4006587FD2580
D5FF9680036900
D500DAC7FA5A00
D5006A40069200
D500294005B400
D5002D40092C00
D50025401B4800
D500254016D000
D5002D4034B000
D50029406D2000
D5006B404B4000
D500DAC0D24000
D5FF9680B68000
D4002581258000
D7FFC903697F80
D7FE1302DAFF80
D000E606960000
DFFF8C0DA5FF80
C00070096C0000
FFFFC00ADBFF80
ENDCHAR
STARTCHAR Scommaaccent
ENCODING 536
SWIDTH 682 0
DWIDTH 22 0
BBX 20 39 1 -12
BITMAP
03FC00
0E0380
18F860
278F30
4C20C0
5BFE40
960180
A5FE00
AD0000
AD0000
A5FC00
940700
53F180
48FE40
270360
31FDA0
0C06A0
03F290
000AD0
000AD0
07FA90
1806B0
0FFDA0
716360
9E1E40
63F180
3C0700
07FC00
000000
015000
015000
015000
015000
015000
005000
005000
019000
003000
01E000
ENDCHAR
STARTCHAR scommaaccent
ENCODING 537
SWIDTH 683 0
DWIDTH 22 0
BBX 20 35 1 -12
BITMAP
03FE00
1C0380
31F860
6F0F10
5860C0
97FE40
A40180
AC0000
A40000
93FE00
580380
67FCC0
300760
0FF1A0
007EB0
0002D0
0002D0
1C0690
63F9A0
980320
C7FCC0
300180
0FFE00
004000
000000
015800
015800
015800
015800
015800
005800
005000
019000
003000
01E000
ENDCHAR
STARTCHAR uni021A
ENCODING 538
SWIDTH 591 0
DWIDTH 19 0
BBX 17 37 1 -11
BITMAP
FFFF80
000000
FFFF80
FFFF80
000000
FFFF80
0D5000
0D5000
0D5000
0D5000
0D5000
0D5000
0D5000
0D5000
0D5000
0D5000
0D5000
0D5000
0D5000
0D5000
0D5000
0D5000
0D5000
0D5000
0D5000
0D5000
000000
02A000
02A000
02A000
02A000
02A000
00A000
01A000
032000
004000
038000
ENDCHAR
STARTCHAR uni021B
ENCODING 539
SWIDTH 588 0
DWIDTH 19 0
BBX 17 34 1 -11
BITMAP
FFFF80
FFFF80
000000
FFFF80
000000
FFFF80
000000
0D5000
0D5000
0D5000
0D5000
0D5000
0D5000
0D5000
0D5000
0D5000
0D5000
0D5000
0D5000
0D5000
0D5000
0D5000
0D5000
000000
02A000
02A000
02A000
02A000
02A000
00A000
01A000
032000
004000
038000
ENDCHAR
STARTCHAR uni0237
ENCODING 567
SWIDTH 393 0
DWIDTH 13 0
BBX 10 26 1 -3
BITMAP
2540
2540
2540
2540
2540
2540
2540
2540
2540
2540
2540
2540
2540
2540
2540
2540
2540
2D40
EB40
9AC0
7680
CD80
3B00
E600
1C00
F000
ENDCHAR
STARTCHAR circumflex
ENCODING 710
SWIDTH 376 0
DWIDTH 12 0
BBX 10 8 1 24
BITMAP
1A00
1A00
3900
2D00
3580
5E80
5280
D2C0
ENDCHAR
STARTCHAR caron
ENCODING 711
SWIDTH 362 0
DWIDTH 12 0
BBX 10 8 1 24
BITMAP
B2C0
D280
5480
5500
2D00
2B00
3A00
1600
ENDCHAR
STARTCHAR breve
ENCODING 728
SWIDTH 360 0
DWIDTH 12 0
BBX 10 4 1 25
BITMAP
A1C0
9E80
6100
1E00
ENDCHAR
STARTCHAR dotaccent
ENCODING 729
SWIDTH 255 0
DWIDTH 8 0
BBX 6 6 1 20
BITMAP
FC
00
FC
FC
00
FC
ENDCHAR
STARTCHAR ring
ENCODING 730
SWIDTH 330 0
DWIDTH 11 0
BBX 9 8 1 25
BITMAP
3E00
4300
BD00
A280
A280
B500
4900
3E00
ENDCHAR
STARTCHAR ogonek
ENCODING 731
SWIDTH 250 0
DWIDTH 8 0
BBX 6 10 1 -9
BITMAP
3C
60
4C
90
B0
B4
B4
B4
B4
B4
ENDCHAR
STARTCHAR tilde
ENCODING 732
SWIDTH 665 0
DWIDTH 21 0
BBX 19 6 1 18
BITMAP
0FFCA0
3FFCA0
4001A0
DFFE60
9000C0
B3FF80
ENDCHAR
STARTCHAR hungarumlaut
ENCODING 733
SWIDTH 837 0
DWIDTH 27 0
BBX 25 7 1 23
BITMAP
00600600
01881900
0630E380
18C38C00
E30E7000
4C09C000
30030000
ENDCHAR
STARTCHAR uni0307
ENCODING 775
SWIDTH 260 0
DWIDTH 8 0
BBX 6 6 1 12
BITMAP
FC
00
FC
00
FC
FC
ENDCHAR
STARTCHAR uni030F
ENCODING 783
SWIDTH 554 0
DWIDTH 18 0
BBX 16 10 1 24
BITMAP
B0B0
50D0
5850
6848
2828
242C
1434
1614
1A12
0B0B
ENDCHAR
STARTCHAR uni0311
ENCODING 785
SWIDTH 375 0
DWIDTH 12 0
BBX 10 4 1 25
BITMAP
1E00
6180
5E80
A140
ENDCHAR
STARTCHAR uni0326
ENCODING 806
SWIDTH 274 0
DWIDTH 9 0
BBX 5 10 2 -12
BITMAP
A8
A8
A8
A8
A8
28
68
C8
10
E0
ENDCHAR
STARTCHAR Omega
ENCODING 937
SWIDTH 92 0
DWIDTH 3 0
BBX 1 1 0 0
BITMAP
00
ENDCHAR
STARTCHAR uni00B5.dup2
ENCODING 956
SWIDTH 802 0
DWIDTH 26 0
BBX 23 26 1 -3
BITMAP
D501AA
D501AA
D501AA
D501AA
D501AA
D501AA
D501AA
D501AA
D501AA
D501AA
D501AA
D501AA
D501AA
D501AA
D5012A
D5034A
D57ED2
D501B4
D57F24
D518C8
D54390
D57E60
D501C0
D57F00
D50000
D50000
ENDCHAR
STARTCHAR pi
ENCODING 960
SWIDTH 92 0
DWIDTH 3 0
BBX 1 1 0 0
BITMAP
00
ENDCHAR
STARTCHAR endash
ENCODING 8211
SWIDTH 473 0
DWIDTH 15 0
BBX 13 6 1 10
BITMAP
FFF8
0000
FFF8
FFF8
0000
FFF8
ENDCHAR
STARTCHAR emdash
ENCODING 8212
SWIDTH 615 0
DWIDTH 20 0
BBX 17 6 1 10
BITMAP
FFFF80
000000
FFFF80
FFFF80
000000
FFFF80
ENDCHAR
STARTCHAR quoteleft
ENCODING 8216
SWIDTH 254 0
DWIDTH 8 0
BBX 6 10 1 16
BITMAP
1C
70
44
DC
90
B0
B4
B4
B4
B4
ENDCHAR
STARTCHAR quoteright
ENCODING 8217
SWIDTH 251 0
DWIDTH 8 0
BBX 6 10 1 16
BITMAP
94
94
94
94
94
34
24
EC
18
F0
ENDCHAR
STARTCHAR quotesinglbase
ENCODING 8218
SWIDTH 252 0
DWIDTH 8 0
BBX 6 10 1 -4
BITMAP
B4
B4
B4
B4
B4
34
24
EC
08
F0
ENDCHAR
STARTCHAR quotedblleft
ENCODING 8220
SWIDTH 535 0
DWIDTH 17 0
BBX 15 10 1 16
BITMAP
1C0E
7038
4422
DC6E
9048
B058
B45A
B45A
B45A
B45A
ENDCHAR
STARTCHAR quotedblright
ENCODING 8221
SWIDTH 532 0
DWIDTH 17 0
BBX 15 10 1 16
BITMAP
944A
944A
944A
944A
944A
341A
2412
EC76
180C
F078
ENDCHAR
STARTCHAR quotedblbase
ENCODING 8222
SWIDTH 533 0
DWIDTH 17 0
BBX 15 10 1 -4
BITMAP
B45A
B45A
B45A
B45A
B45A
341A
2412
EC76
0804
F078
ENDCHAR
STARTCHAR dagger
ENCODING 8224
SWIDTH 636 0
DWIDTH 20 0
BBX 18 26 1 0
BITMAP
06A800
06A800
06A800
06A800
06A800
FEAFC0
FEAFC0
06A800
FEAFC0
06A800
FEAFC0
06A800
06A800
06A800
06A800
06A800
06A800
06A800
06A800
06A800
06A800
06A800
06A800
06A800
06A800
06A800
ENDCHAR
STARTCHAR daggerdbl
ENCODING 8225
SWIDTH 648 0
DWIDTH 21 0
BBX 19 26 1 0
BITMAP
02AC00
02AC00
02AC00
02AC00
02AC00
FEAFE0
02AC00
FEAFE0
02AC00
02AC00
FEAFE0
02AC00
02AC00
02AC00
02AC00
02AC00
FEAFE0
02AC00
FEAFE0
02AC00
FEAFE0
02AC00
02AC00
02AC00
02AC00
02AC00
ENDCHAR
STARTCHAR bullet
ENCODING 8226
SWIDTH 501 0
DWIDTH 16 0
BBX 14 14 1 4
BITMAP
0FC0
3030
6798
4868
D02C
B034
B014
B014
9024
586C
4FC8
3010
1FE0
0380
ENDCHAR
STARTCHAR ellipsis
ENCODING 8230
SWIDTH 676 0
DWIDTH 22 0
BBX 19 6 1 0
BITMAP
FDFBE0
FDFBE0
000000
FDFBE0
000000
FDFBE0
ENDCHAR
STARTCHAR perthousand
ENCODING 8240
SWIDTH 447 0
DWIDTH 14 0
BBX 13 29 1 -3
BITMAP
0158
0350
0250
02D0
02B0
06A0
04A0
05A0
0560
0D40
0940
0B40
0AC0
1A80
1280
1680
1580
3500
2500
2900
2B00
6A00
4A00
5200
5600
D400
9400
A400
AC00
ENDCHAR
STARTCHAR guilsinglleft
ENCODING 8249
SWIDTH 465 0
DWIDTH 15 0
BBX 13 16 1 4
BITMAP
0008
0038
01C0
0718
38E0
E388
1C70
71C0
8E00
39E0
CE38
71C0
1C70
0388
00E0
0018
ENDCHAR
STARTCHAR guilsinglright
ENCODING 8250
SWIDTH 465 0
DWIDTH 15 0
BBX 13 16 1 4
BITMAP
8000
E000
1C00
C700
38E0
8E38
71C0
1C70
0388
3CE0
E398
1C70
71C0
8E00
3800
C000
ENDCHAR
STARTCHAR fraction
ENCODING 8260
SWIDTH 447 0
DWIDTH 14 0
BBX 13 29 1 -3
BITMAP
0158
0350
0250
02D0
02B0
06A0
04A0
05A0
0560
0D40
0940
0B40
0AC0
1A80
1280
1680
1580
3500
2500
2900
2B00
6A00
4A00
5200
5600
D400
9400
A400
AC00
ENDCHAR
STARTCHAR uni2074
ENCODING 8308
SWIDTH 528 0
DWIDTH 17 0
BBX 15 21 1 5
BITMAP
06B0
05A0
0D60
0B40
1AC0
1680
3580
2D00
6928
5A28
D228
0400
FFFE
0000
FFFE
0000
FFFE
FFFE
0028
0028
0028
ENDCHAR
STARTCHAR Euro
ENCODING 8364
SWIDTH 781 0
DWIDTH 25 0
BBX 23 28 1 -1
BITMAP
000FF8
00380E
00C3E0
019E3E
026080
04CFFC
0DB004
0B67F8
1AD808
14B000
15A000
256000
ED5FC0
294000
294000
ED5FC0
254000
352000
14B000
12D808
0B67F8
0D3000
04CFFC
0263C0
019C1E
00C7F0
00380E
000FF8
ENDCHAR
STARTCHAR trademark
ENCODING 8482
SWIDTH 1503 0
DWIDTH 48 0
BBX 46 19 1 7
BITMAP
FFFF9AC001AC
00001B40014C
FFFF9D200254
FFFF95A00294
0000169004A4
FFFF92500D24
02A015480954
02A015281A54
02A016A416A4
02A0169435A4
02A017522D64
02A0174B6BA4
02A016AD5AA4
02A016B5D6A4
02A01696B4A4
02A0169AECA4
02A0168B48A4
02A0168D78A4
02A01687B0A4
ENDCHAR
STARTCHAR partialdiff
ENCODING 8706
SWIDTH 108 0
DWIDTH 3 0
BBX 1 1 0 0
BITMAP
00
ENDCHAR
STARTCHAR uni2206
ENCODING 8710
SWIDTH 108 0
DWIDTH 3 0
BBX 1 1 0 0
BITMAP
00
ENDCHAR
STARTCHAR product
ENCODING 8719
SWIDTH 521 0
DWIDTH 17 0
BBX 15 23 1 0
BITMAP
0D40
0D20
0CA0
12B0
12D0
3750
2D48
2928
4BAC
52B4
D4D4
B452
94D6
5694
5AA4
6AA8
2968
2558
15D0
1690
1AA0
0A60
0D60
ENDCHAR
STARTCHAR summation
ENCODING 8721
SWIDTH 108 0
DWIDTH 3 0
BBX 1 1 0 0
BITMAP
00
ENDCHAR
STARTCHAR minus
ENCODING 8722
SWIDTH 555 0
DWIDTH 18 0
BBX 15 6 1 11
BITMAP
FFFE
0000
FFFE
FFFE
0000
FFFE
ENDCHAR
STARTCHAR radical
ENCODING 8730
SWIDTH 108 0
DWIDTH 3 0
BBX 1 1 0 0
BITMAP
00
ENDCHAR
STARTCHAR infinity
ENCODING 8734
SWIDTH 108 0
DWIDTH 3 0
BBX 1 1 0 0
BITMAP
00
ENDCHAR
STARTCHAR integral
ENCODING 8747
SWIDTH 362 0
DWIDTH 12 0
BBX 10 29 1 -2
BITMAP
03C0
0C00
19C0
1700
24C0
29C0
2B00
2B00
2B00
2B00
2B00
2B00
2B00
2B00
2B00
2B00
2B00
2B00
2B00
2B00
2B00
2B00
2B00
6B00
CA00
1200
E400
0C00
F000
ENDCHAR
STARTCHAR approxequal
ENCODING 8776
SWIDTH 665 0
DWIDTH 21 0
BBX 19 14 1 10
BITMAP
0FFCA0
3FFCA0
4001A0
DFFE60
9000C0
B3FF80
000000
000000
0FFCA0
3FFCA0
4001A0
DFFE60
9000C0
B3FF80
ENDCHAR
STARTCHAR notequal
ENCODING 8800
SWIDTH 473 0
DWIDTH 15 0
BBX 13 29 1 -3
BITMAP
0158
0350
0250
02D0
02B0
06A0
04A0
FFF8
0560
FFF8
0940
FFF8
0AC0
1A80
1280
1680
FFF8
3500
FFF8
2900
FFF8
6A00
4A00
5200
5600
D400
9400
A400
AC00
ENDCHAR
STARTCHAR lessequal
ENCODING 8804
SWIDTH 108 0
DWIDTH 3 0
BBX 1 1 0 0
BITMAP
00
ENDCHAR
STARTCHAR greaterequal
ENCODING 8805
SWIDTH 108 0
DWIDTH 3 0
BBX 1 1 0 0
BITMAP
00
ENDCHAR
STARTCHAR lozenge
ENCODING 9674
SWIDTH 521 0
DWIDTH 17 0
BBX 15 23 1 0
BITMAP
0D40
0D20
0CA0
12B0
12D0
3750
2D48
2928
4BAC
52B4
D4D4
B452
94D6
5694
5AA4
6AA8
2968
2558
15D0
1690
1AA0
0A60
0D60
ENDCHAR
STARTCHAR uniF8FF
ENCODING 63743
SWIDTH 108 0
DWIDTH 3 0
BBX 1 1 0 0
BITMAP
00
ENDCHAR
STARTCHAR uniFB01
ENCODING 64257
SWIDTH 962 0
DWIDTH 31 0
BBX 28 23 1 0
BITMAP
D5FFCD50
D5FFCD50
D5000D50
D5FFCD50
D5000D50
D5FFCD50
D5000D50
D5000D50
D5000D50
D5000D50
D5FF8D50
D5000D50
D5FF8D50
D5000D50
D5FF8D50
D5000D50
D5000D50
D5000D50
D5000D50
D5000D50
D5000D50
D5000D50
D5000D50
ENDCHAR
STARTCHAR uniFB02
ENCODING 64258
SWIDTH 1208 0
DWIDTH 39 0
BBX 37 23 1 0
BITMAP
D5FFCD5000
D5FFCD5000
D5000D5000
D5FFCD5000
D5000D5000
D5FFCD5000
D5000D5000
D5000D5000
D5000D5000
D5000D5000
D5FF8D5000
D5000D5000
D5FF8D5000
D5000D5000
D5FF8D5000
D5000D5000
D5000D5000
D5000D5FF8
D5000D5FF8
D5000D5000
D5000D5FF8
D5000D5000
D5000D5FF8
ENDCHAR
STARTCHAR .notdef
ENCODING -1
SWIDTH 108 0
DWIDTH 3 0
BBX 1 1 0 0
BITMAP
00
ENDCHAR
ENDFONT
